<?xml version="1.0" encoding="UTF-8"?>
<svg version="1.1" viewBox="0 0 431 84" xmlns="http://www.w3.org/2000/svg">
<g fill-rule="evenodd">
<path d="m157.36 21.883c-0.12796 0.34216-0.31768 0.58397-0.56915 0.72542-0.256 0.144-0.544 0.264-0.864 0.36-0.16 0.032-0.32 0.048-0.48 0.048s-0.32 0.016-0.48 0.048c-0.16 0-0.272-0.016-0.336-0.048-0.192-0.16-0.392-0.224-0.6-0.192s-0.44 0.048-0.696 0.048c-0.256 0.032-0.488 0.048-0.696 0.048h-0.696l-1.008 0.144c-0.416 0.064-0.816 0.128-1.2 0.192s-0.784 0.112-1.2 0.144l-1.44 0.144c-0.288 0.064-0.576 0.096-0.864 0.096-0.288 0-0.576 0.016-0.864 0.048-0.32 0.064-0.432 0.208-0.336 0.432 0.128 0.416 0.208 0.824 0.24 1.224s0.032 0.792 0 1.176-0.056 0.776-0.072 1.176-0.056 0.792-0.12 1.176c-0.128 0.736-0.248 1.472-0.36 2.208-0.112 0.736-0.248 1.472-0.408 2.208-0.16 0.704-0.336 1.408-0.528 2.112s-0.368 1.408-0.528 2.112c-0.352 1.216-0.688 2.44-1.008 3.672-0.32 1.232-0.672 2.456-1.056 3.672-0.16 0.448-0.32 0.872-0.48 1.272s-0.32 0.824-0.48 1.272c-0.096 0.256-0.2 0.52-0.312 0.792-0.112 0.272-0.216 0.536-0.312 0.792l-0.096 0.192c-0.032 0.064-0.08 0.128-0.144 0.192-0.064-0.032-0.128-0.048-0.192-0.048-0.032 0.064-0.064 0.136-0.096 0.216s-0.064 0.152-0.096 0.216c-0.064 0.256-0.168 0.448-0.312 0.576s-0.312 0.272-0.504 0.432l-0.768 0.576c-0.16 0.096-0.32 0.168-0.48 0.216s-0.32 0.104-0.48 0.168c-0.064-0.16-0.072-0.304-0.024-0.432s0.088-0.256 0.12-0.384c0-0.16 0.032-0.304 0.096-0.432s0.048001-0.272-0.048-0.432c-0.064 0.128-0.128 0.248-0.192 0.36s-0.128 0.232-0.192 0.36l-0.011508-0.011508c-0.024328 0.081918-0.036492 0.15775-0.036492 0.22751 0 0.08-0.032 0.152-0.096 0.216l-0.24 0.24c-0.096 0.096-0.176 0.208-0.24 0.336-0.064 0.032-0.12 5e-7 -0.168-0.096s-0.104-0.112-0.168-0.048c-0.128 0.064-0.192 0.056-0.192-0.024s-0.032-0.136-0.096-0.168c-0.064 0.032-0.12 0.08-0.168 0.144s-0.136 0.048-0.264-0.048c-0.064-0.032-0.16-0.048-0.288-0.048-0.288 0-0.448-0.095999-0.48-0.288 0-0.096-0.047999-0.144-0.144-0.144-0.16 0-0.264-0.048-0.312-0.144s-0.088-0.208-0.12-0.336c-0.064 0-0.112 0.0079999-0.144 0.024s-0.08 0.0080002-0.144-0.024c-0.032 0-0.048-0.063999-0.048-0.192l0.096-0.384c0.032-0.128 0.064-0.272 0.096-0.432 0-0.16-0.095999-0.272-0.288-0.336h-0.192c-0.128 0-0.192-0.048-0.192-0.144 0.064-0.224 0.072-0.432 0.024-0.624s-0.072-0.368-0.072-0.528c0-0.032 0.032-0.08 0.096-0.144 0 0.064 0.016 0.112 0.048 0.144 0 0.030117 0.014172 0.046061 0.042516 0.047834-0.061279-0.069484-0.090516-0.13066-0.090516-0.19183 0.096001-0.608 0.232-1.208 0.408-1.8s0.344-1.192 0.504-1.8c0.352-1.216 0.704-2.448 1.056-3.696s0.704-2.48 1.056-3.696 0.688-2.416 1.008-3.6c0.32-1.184 0.64-2.384 0.96-3.6 0.224-0.768 0.432-1.544 0.624-2.328s0.352-1.56 0.48-2.328l0.144-0.576c0.096001-0.32-0.031998-0.48-0.384-0.48-0.672-0.032-1.352-0.072-2.04-0.12-0.688-0.048-1.4-0.056-2.136-0.024-0.256 0-0.504-0.016-0.744-0.048s-0.488-0.08-0.744-0.144c-0.16-0.064-0.296-0.096-0.408-0.096-0.112 0-0.248-0.016-0.408-0.048s-0.296-0.064-0.408-0.096c-0.112-0.032-0.232-0.096-0.36-0.192 0.032-0.032 0.056-0.064 0.072-0.096s0.04-0.064 0.072-0.096c-0.096-0.096-0.2-0.12-0.312-0.072-0.112 0.048-0.248 0.024-0.408-0.072-0.032-0.064-0.072-0.136-0.12-0.216s-0.104-0.152-0.168-0.216c-0.064-0.16-0.112-0.288-0.144-0.384s0.015999-0.208 0.144-0.336 0.16-0.304 0.096-0.528c-0.032-0.064-0.048-0.12-0.048-0.168s-0.016-0.12-0.048-0.216c0.224-0.16 0.432-0.312 0.624-0.456s0.416-0.232 0.672-0.264c0.128-0.064 0.24-0.096 0.336-0.096 0.544-0.064 0.944-0.304 1.2-0.72 0.032-0.064 0.112-0.128 0.24-0.192-0.064-0.032-0.128-0.048-0.192-0.048s-0.112-0.032-0.144-0.096c-0.096-0.16-0.24-0.208-0.432-0.144-0.096 0.064-0.192 0.088-0.288 0.072-0.096-0.016-0.192 0.0079997-0.288 0.072-0.30533 0.0916-0.5524 0.022965-0.74119-0.20591 0.050765-0.027365 0.089829-0.054729 0.11719-0.082094 0.032-0.032 0.08-0.048 0.144-0.048 0.32 0 0.632-0.032 0.936-0.096 0.304-0.064 0.6-0.144 0.888-0.24 0.288-0.096 0.608-0.144 0.96-0.144 0.256-0.032 0.504-0.056 0.744-0.072s0.488-0.04 0.744-0.072c0.224-0.032 0.44-0.048 0.648-0.048h0.648c-0.064-0.096-0.128-0.144-0.192-0.144h-0.96c-0.256 0-0.512-0.016-0.768-0.048 0.032-0.128 0.128-0.192 0.288-0.192 0.352-0.096 0.712-0.16 1.08-0.192s0.728-0.064 1.08-0.096c0.608-0.032 1.2-0.048 1.776-0.048s1.152-0.016 1.728-0.048c0.192-0.032 0.384-0.056 0.576-0.072s0.384-0.024 0.576-0.024 0.392-0.0079999 0.6-0.024 0.424-0.024 0.648-0.024c0.256 0 0.52-0.0079999 0.792-0.024s0.536-0.04 0.792-0.072c0.576-0.064 1.168-0.064 1.776 0 0.416 0.032 0.816 0.032 1.2 0 0.128-0.032 0.304-0.048 0.528-0.048 0.992 0 1.888-0.112 2.688-0.336 0.416-0.096 0.848-0.144 1.296-0.144 0.256 0 0.504-0.016 0.744-0.048s0.488-0.048 0.744-0.048c0.192 0 0.384 0.016 0.576 0.048s0.384 0.048 0.576 0.048c0.32 0 0.656 0.095999 1.008 0.288-0.128 0.064-0.248 0.112-0.36 0.144-0.112 0.032-0.248 0.064-0.408 0.096 0.864 0.064 1.568 0.288 2.112 0.672-0.064 0.16-0.176 0.232-0.336 0.216s-0.256 0.055999-0.288 0.216c0.16 0.064 0.32 0.12 0.48 0.168s0.336 0.04 0.528-0.024c0.064 0 0.128 0.032 0.192 0.096l0.048 0.048c0 0.064-8e-3 0.112-0.024 0.144s-0.024 0.08-0.024 0.144c-0.256 0.064-0.504 0.048-0.744-0.048s-0.488-0.064001-0.744 0.096c0.096001 0.064 0.184 0.104 0.264 0.12 0.080001 0.016 0.152 0.056 0.216 0.12-0.128-0.032-0.264-0.048-0.408-0.048s-0.296 0.032-0.456 0.096c0.192 0.032 0.36 0.064 0.504 0.096s0.28-0.015999 0.408-0.144c0.032 0.032 0.096 0.048 0.192 0.048 0.064 0.16 0.128 0.224 0.192 0.192 0.064 0 0.104-0.016 0.12-0.048s0.056-0.064 0.12-0.096c0.032 0.032 0.176 0.112 0.432 0.24-0.16 0.064-0.312 0.096-0.456 0.096h-1.128c-0.064 0.032-0.144 0.096-0.24 0.192-0.032 0.128 0.031999 0.192 0.192 0.192 0.16 0.032 0.304 0.056 0.432 0.072s0.272 0.024 0.432 0.024c-0.064 0.128-0.112 0.192-0.144 0.192-0.096 0.064-0.184 0.096-0.264 0.096-0.08 0-0.184 0.016-0.312 0.048 0.064 0.256 0.112 0.464 0.144 0.624 0.096001-0.096 0.16-0.176 0.192-0.24 0.128 0.032 0.248 0.048 0.36 0.048 0.112 0 0.232 0.016 0.36 0.048-0.032 0.064-0.064 0.096-0.096 0.096s-0.08 0.016-0.144 0.048h-0.24l0.096 0.096c0.288 0 0.56 0.095999 0.816 0.288-0.032 0.224-0.12 0.4-0.264 0.528s-0.312 0.24-0.504 0.336c0-0.012091-0.002284-0.021897-0.006852-0.029419zm-24.863 26.093c0.001773 1.109e-4 0.003601 1.663e-4 0.005484 1.663e-4 -0.002825-0.0028252-0.005588-0.0056504-0.008288-0.0084756l0.002804 0.0083093zm-1.3597-29.342c-0.0086 0.0046355-0.017535 0.0092709-0.026806 0.013906v-0.048c0.008801 0.011734 0.017736 0.023099 0.026806 0.034094zm19.689-1.7261c8e-3 -8e-3 0.012-0.02 0.012-0.036h0.624c0.16 0 0.272-0.032 0.336-0.096 0.064 0 0.128-0.0079999 0.192-0.024s0.128-0.024 0.192-0.024c-0.16-0.064-0.288-0.048-0.384 0.048h-0.624c-0.032 0-0.144 0.032-0.336 0.096 0 0.016-4e-3 0.028-0.012 0.036zm-6.852 0.636c-0.256 0.032-0.496 0.04-0.72 0.024s-0.464 0.0079997-0.72 0.072c0.384 0.064 0.8 0.064 1.248 0 0.064 0 0.128-0.032 0.192-0.096 0.224-0.032 0.44-0.04 0.648-0.024s0.408-0.0079997 0.6-0.072c0-0.032 0.016-0.064 0.048-0.096-0.288 0-0.496 0.016-0.624 0.048-0.064 0-0.12-0.0079999-0.168-0.024s-0.104-0.0080002-0.168 0.024c-0.128 0.064-0.24 0.112-0.336 0.144zm3.936-0.192c-0.448-0.096-0.752-0.136-0.912-0.12s-0.32 0.056-0.48 0.12h1.392zm6.336-0.576c-0.352-0.192-0.704-0.224-1.056-0.096 0.192 0.064 0.304 0.096 0.336 0.096h0.72zm0.816 1.008c0.192-0.032 0.344-0.048 0.456-0.048 0.112 0 0.216-0.016 0.312-0.048v-0.096c-0.128-0.032-0.248-0.048-0.36-0.048-0.112 0-0.248 0.079999-0.408 0.24zm-13.008-0.192c-0.128 0.096-0.256 0.096-0.384 0h0.384zm8.016-0.48h-0.192c0 0.032 0.032 0.048 0.096 0.048 0.032 0 0.064-0.016 0.096-0.048zm-4.416 0.144l-0.048 0.048h0.048v-0.048zm16.08 7.8635v-0.039527h0.048c-0.016163 0.012931-0.032163 0.026106-0.048 0.039527zv0.44047c-0.096 0.064-0.144 0.176-0.144 0.336-0.087635 0.029212-0.13527 0.12509-0.14291 0.28763 0.095272-0.032363 0.14291-0.12824 0.14291-0.28763 0.128-0.032 0.192-0.144 0.192-0.336 0.096001-0.032 0.16-0.088 0.192-0.168s0.08-0.168 0.144-0.264c0.256-0.48 0.52-0.96 0.792-1.44s0.552-0.96 0.84-1.44c0.256-0.416 0.536-0.824 0.84-1.224 0.304-0.4 0.632-0.776 0.984-1.128l0.576-0.48c0.192-0.16 0.4-0.32 0.624-0.48 0.128-0.064 0.256-0.12 0.384-0.168s0.272-0.104 0.432-0.168c0.544-0.16 1.056-0.4 1.536-0.72 0.064-0.032 0.112-0.072 0.144-0.12s0.08-0.104 0.144-0.168h-0.048c0.192 0 0.304-0.048 0.336-0.144 0.192 0 0.304-0.063999 0.336-0.192v0.048l1.536-0.384c0.032-0.032 0.048-0.056 0.048-0.072s0.016-0.04 0.048-0.072v0.048l0.288 0.096c0.096001 0.032 0.224 0.032 0.384 0-0.064-0.064-0.12-0.112-0.168-0.144s-0.104-0.08-0.168-0.144c0.16 0.064 0.336 0.112 0.528 0.144s0.384 0.048 0.576 0.048c0.16 0 0.328-0.016 0.504-0.048s0.344-0.064 0.504-0.096c0.832-0.096 1.552-0.016001 2.16 0.24 0.736 0.256 1.296 0.672 1.68 1.248 0.384 0.544 0.712 1.104 0.984 1.68s0.472 1.184 0.6 1.824c0.096001 0.48 0.184 0.968 0.264 1.464 0.080001 0.496 0.152 1 0.216 1.512 0.064 0.384 0.088 0.776 0.072 1.176s-8e-3 0.808 0.024 1.224c0 0.704-0.032 1.4-0.096 2.088s-0.144 1.368-0.24 2.04c-0.064 0.576-0.136 1.152-0.216 1.728-0.08 0.576-0.168 1.152-0.264 1.728-0.16 0.864-0.36 1.712-0.6 2.544s-0.52 1.664-0.84 2.496c-0.256 0.704-0.552 1.376-0.888 2.016s-0.696 1.28-1.08 1.92c-0.032 0.064-0.056 0.104-0.072 0.12s-0.04 0.056-0.072 0.12c-0.416 0.8-0.904 1.52-1.464 2.16s-1.16 1.264-1.8 1.872c-0.32 0.288-0.664 0.512-1.032 0.672s-0.744 0.272-1.128 0.336c-0.096 0.032-0.192 0.048-0.288 0.048-0.096 0-0.192 0.016-0.288 0.048-0.128 0.032-0.248 0.072-0.36 0.12-0.112 0.048-0.248 0.104-0.408 0.168 0.16 0.096 0.304 0.152 0.432 0.168s0.416 0.0080002 0.864-0.024c-0.512 0.192-0.944 0.272-1.296 0.24-0.16-0.032-0.336-0.056-0.528-0.072s-0.368-0.04-0.528-0.072c-0.032 0-0.112 0.032-0.24 0.096 0.096001 0.128 0.208 0.2 0.336 0.216s0.272 0.072 0.432 0.168c-0.16 0.064-0.312 0.088-0.456 0.072s-0.28-0.0080002-0.408 0.024c-0.256 0-0.504 0.0079999-0.744 0.024s-0.488 0.0080002-0.744-0.024h-0.648c-0.208 0-0.408-0.032-0.6-0.096-0.352-0.096-0.624-0.168-0.816-0.216s-0.376-0.104-0.552-0.168-0.352-0.16-0.528-0.288-0.408-0.288-0.696-0.48c-0.384-0.224-0.736-0.528-1.056-0.912l-0.144-0.144c-0.704-0.64-1.24-1.352-1.608-2.136s-0.664-1.624-0.888-2.52c-0.192-0.704-0.312-1.408-0.36-2.112s-0.056-1.424-0.024-2.16c0-0.736 0.04-1.456 0.12-2.16 0.080001-0.704 0.184-1.424 0.312-2.16 0.16-0.832 0.32-1.64 0.48-2.424s0.352-1.56 0.576-2.328c0.16-0.64 0.368-1.272 0.624-1.896s0.512-1.24 0.768-1.848c0.064-0.16 0.16-0.328 0.288-0.504 0.11507-0.15822 0.24307-0.29704 0.384-0.41647zm-0.31294 1.1143c-0.047376 0.007688-0.071064 0.039064-0.071064 0.094129v0.048l0.071064-0.14213zm3.7772 23.374c0.003882 0.0093726 0.009137 0.017372 0.015764 0.024 0.016 0.016 0.024 0.04 0.024 0.072 0.032 0 0.056-0.0079999 0.072-0.024s0.04-0.024 0.072-0.024l-0.048-0.048h-0.13576zm-0.98024-19.692c-8e-3 0.0079999-0.02 0.012-0.036 0.012-0.096 0.096-0.16 0.2-0.192 0.312s-0.08 0.216-0.144 0.312c-0.448 1.024-0.792 2.072-1.032 3.144s-0.44 2.168-0.6 3.288c-0.064 0.352-0.096 0.704-0.096 1.056s-0.032 0.704-0.096 1.056-0.096 0.688-0.096 1.008v1.008c0.032 0.704 0.24 1.392 0.624 2.064 0.064 0.16 0.176 0.272 0.336 0.336 0.096001 0.096 0.176 0.080001 0.24-0.048 0.064-0.16 0.064-0.24 0-0.24-0.128-0.032-0.192-0.16-0.192-0.384 0-0.288-8e-3 -0.584-0.024-0.888s-0.024-0.6-0.024-0.888c-0.032-0.512-0.048-1.008-0.048-1.488s0.032-0.976 0.096-1.488c0.032-0.384 0.056-0.768 0.072-1.152s0.056-0.752 0.12-1.104c0.224-1.536 0.512-3.072 0.864-4.608 0.064-0.224 0.12-0.44 0.168-0.648s0.056-0.424 0.024-0.648c0.016 0 0.028-4e-3 0.036-0.012zm11.328 4.272c8e-3 -8e-3 0.012-0.02 0.012-0.036 0.032-0.064 0.064-0.12 0.096-0.168s0.048-0.104 0.048-0.168c0.064-0.416 0.128-0.816 0.192-1.2s0.128-0.784 0.192-1.2l0.192-1.44c0.064-0.48 0.096-0.96 0.096-1.44 0-0.64 0.048-1.28 0.144-1.92 0.032-0.352 0.04-0.72 0.024-1.104s-0.056-0.768-0.12-1.152c-0.064-0.352-0.152-0.704-0.264-1.056-0.112-0.352-0.2-0.704-0.264-1.056-0.032-0.224-0.192-0.416-0.48-0.576l-0.024-0.024c-4e-3 0.02 8e-3 0.024 0.024 0.024 0.128 0.256 0.208 0.448 0.24 0.576 0.064 0.128 0.032001 0.208-0.096 0.24-0.064-0.128-0.136-0.248-0.216-0.36-0.08-0.112-0.152-0.248-0.216-0.408-0.096-0.128-0.184-0.256-0.264-0.384-0.08-0.128-0.168-0.256-0.264-0.384-0.224-0.256-0.464-0.368-0.72-0.336-0.064 0.16-0.12 0.304-0.168 0.432s-0.152 0.256-0.312 0.384l-1.728 1.584c-0.704 0.64-1.264 1.36-1.68 2.16-0.256 0.416-0.488 0.824-0.696 1.224s-0.424 0.824-0.648 1.272c-0.384 0.8-0.728 1.608-1.032 2.424-0.304 0.816-0.552 1.656-0.744 2.52-0.16 0.64-0.296 1.288-0.408 1.944-0.112 0.656-0.216 1.304-0.312 1.944-0.064 0.384-0.104 0.776-0.12 1.176s-0.04 0.792-0.072 1.176c-0.032 0.544-0.024 1.08 0.024 1.608s0.104 1.064 0.168 1.608c0.064 0.576 0.2 1.112 0.408 1.608s0.52 0.952 0.936 1.368c0.16 0.16 0.328 0.296 0.504 0.408s0.392 0.168 0.648 0.168c0.288-0.128 0.608-0.336 0.96-0.624 1.024-0.8 1.904-1.76 2.64-2.88 0.352-0.544 0.672-1.104 0.96-1.68l0.864-1.728c0.096001-0.256 0.2-0.496 0.312-0.72 0.112-0.224 0.2-0.464 0.264-0.72 0.16-0.64 0.304-1.296 0.432-1.968s0.24-1.328 0.336-1.968l0.144-0.288v1.104c0 0.016-4e-3 0.028-0.012 0.036zm-0.084-13.428c-0.096-0.512-0.336-0.848-0.72-1.008-0.064-0.064-0.136-0.096-0.216-0.096-0.08 0-0.152-0.016-0.216-0.048-0.064 0-0.12 0.024-0.168 0.072s-0.056 0.104-0.024 0.168c0.064 0.16 0.144 0.256 0.24 0.288 0.064 0.064 0.152 0.112 0.264 0.144 0.112 0.032 0.216 0.08 0.312 0.144 0.096001 0.064 0.184 0.12 0.264 0.168 0.080001 0.048 0.168 0.104 0.264 0.168zm-7.536-1.008c-0.256 0.032-0.456 0.096-0.6 0.192s-0.264 0.224-0.36 0.384v0.24c0.16-0.128 0.32-0.248 0.48-0.36s0.32-0.264 0.48-0.456zm-4.224 26.784c0.096001 0.32 0.168 0.504 0.216 0.552s0.184 0.088 0.408 0.12c-0.096-0.096-0.184-0.192-0.264-0.288-0.08-0.096-0.2-0.224-0.36-0.384zm13.392-27.12c0-0.16-0.079999-0.24-0.24-0.24h-0.096v0.096c0.064 0.128 0.16 0.192 0.288 0.192l0.048-0.048zm-10.608 30.384c-0.192-0.064-0.336-0.08-0.432-0.048-0.032 0-0.048 0.0079999-0.048 0.024s-0.016 0.024-0.048 0.024c0 0.032 8e-3 0.048 0.024 0.048s0.024 0.016 0.024 0.048c0.192 0.064 0.352 0.032001 0.48-0.096zm-3.12-5.808c-0.032 0-0.048-0.032-0.048-0.096-0.032 0-0.048 0.016-0.048 0.048v0.144l0.096-0.096zm12.096-9.36v0.048h0.048l-0.048-0.048zm-12.144 11.76v-0.096h-0.048v0.048c0.032 0 0.048 0.016 0.048 0.048zm21.712 3.3921c0.010347 0.0050543 0.021054 0.010348 0.032119 0.01588h-0.048l0.015881-0.01588zc-0.10935-0.053413-0.17865-0.08012-0.20788-0.08012-0.224-0.064-0.336-0.032001-0.336 0.096-0.032 0.224-0.176 0.368-0.432 0.432-0.256 0.096-0.512 0.152-0.768 0.168s-0.512-0.055999-0.768-0.216c-0.128-0.064-0.264-0.112-0.408-0.144s-0.296-0.064-0.456-0.096c-0.384-0.032-0.72-0.224-1.008-0.576-0.064-0.096-0.16-0.272-0.288-0.528-0.032-0.064-0.064-0.144-0.096-0.24s-0.064-0.176-0.096-0.24c-0.192-0.352-0.192-0.736 0-1.152 0.256 0.064 0.464 0.096 0.624 0.096s0.208-0.079999 0.144-0.24c0-0.032-8e-3 -0.056-0.024-0.072s-0.024-0.04-0.024-0.072c-0.192-0.128-0.24-0.32-0.144-0.576 0.16-0.448 0.272-0.88 0.336-1.296s0.128-0.848 0.192-1.296c0.128-0.832 0.264-1.648 0.408-2.448s0.264-1.616 0.36-2.448c0.064-0.544 0.144-1.08 0.24-1.608 0.096001-0.528 0.208-1.064 0.336-1.608 0.192-0.992 0.392-1.976 0.6-2.952s0.424-1.96 0.648-2.952l0.72-3.744c0.128-0.608 0.248-1.2 0.36-1.776 0.112-0.576 0.232-1.152 0.36-1.728 0.032-0.064 0.048-0.128 0.048-0.192s0.016-0.128 0.048-0.192c-0.064-0.128-0.128-0.24-0.192-0.336s-0.128-0.208-0.192-0.336c-0.224-0.48-0.16-0.864 0.192-1.152 0.16-0.16 0.288-0.328 0.384-0.504 0.096001-0.176 0.192-0.344 0.288-0.504 0.192-0.416 0.48-0.768 0.864-1.056 0.608-0.48 1.36-0.88 2.256-1.2 0.384-0.16 0.768-0.232 1.152-0.216s0.752 0.056 1.104 0.12c0.192 0.032 0.368 0.056 0.528 0.072s0.336-0.0079997 0.528-0.072c0.16-0.064 0.328-0.104 0.504-0.12s0.344-0.04 0.504-0.072h0.576c0.544 0.064 1.072 0.144 1.584 0.24 0.512 0.096 1.008 0.224 1.488 0.384 0.64 0.224 1.216 0.512 1.728 0.864 0.512 0.352 0.944 0.8 1.296 1.344 0.32 0.48 0.624 0.96 0.912 1.44 0.288 0.48 0.544 0.992 0.768 1.536 0.16 0.384 0.296 0.784 0.408 1.2 0.112 0.416 0.168 0.848 0.168 1.296v1.656c0 0.56-0.016 1.112-0.048 1.656-0.032 1.376-0.272 2.736-0.72 4.08-0.256 0.8-0.528 1.592-0.816 2.376-0.288 0.784-0.608 1.56-0.96 2.328-0.256 0.512-0.52 1.008-0.792 1.488s-0.584 0.944-0.936 1.392c-0.256 0.352-0.504 0.704-0.744 1.056s-0.536 0.672-0.888 0.96c-0.416 0.64-0.872 1.224-1.368 1.752-0.496 0.528-1.016 1.064-1.56 1.608-0.64 0.64-1.32 1.224-2.04 1.752-0.72 0.528-1.48 1.016-2.28 1.464l-0.576 0.288c-0.288 0.16-0.512 0.208-0.672 0.144-0.064 0-0.128 0.032-0.192 0.096-0.256 0-0.416 0.063999-0.48 0.192v-0.048c-0.096 0.032-0.184 0.04-0.264 0.024-0.08-0.016-0.136 0.055999-0.168 0.216h-0.24c-0.256-0.064-0.496-0.064-0.72 0s-0.464 0.144-0.72 0.24l-0.032119 0.03212zm13.136-27.632v0.048c0.064 0.032 0.128 0.08 0.192 0.144 0.032 0.032 0.064 0.048 0.096 0.048s0.064 0.016 0.096 0.048h-0.048c-0.032 0-0.08-0.032-0.144-0.096l-0.192-0.192zm0.672 2.64c-0.064 0.128-0.064 0.304 0 0.528 0.096001 0.544 0.16 1.072 0.192 1.584s0.064 1.04 0.096 1.584c0 0.224-8e-3 0.448-0.024 0.672s-0.04 0.448-0.072 0.672c0 0.16-8e-3 0.304-0.024 0.432s-0.024 0.256-0.024 0.384v0.168c0 0.048 0.048 0.104 0.144 0.168 0.128-0.32 0.232-0.64 0.312-0.96 0.080001-0.32 0.152-0.656 0.216-1.008 0.256-1.088 0.24-2.144-0.048-3.168-0.032-0.192-0.032-0.352 0-0.48 0.032-0.16 1e-6 -0.32-0.096-0.48-0.128-0.16-0.248-0.328-0.36-0.504-0.112-0.176-0.248-0.36-0.408-0.552 0-0.032-0.016-0.048-0.048-0.048-0.096 0-0.16-0.016-0.192-0.048 0.064 0.192 0.128 0.368 0.192 0.528s0.096 0.32 0.096 0.48l0.048 0.048zm-7.3208-2.7596c-0.053767 0.051941-0.1015 0.09181-0.14319 0.11961-0.048 0.032-0.104 0.08-0.168 0.144 0.096001 0.224 0.152 0.368 0.168 0.432s8e-3 0.176-0.024 0.336l-0.288 1.584-0.096 0.192c-0.032 0.064-0.016 0.128 0.048 0.192 0.064 0 0.12-0.0079999 0.168-0.024s0.104-0.024 0.168-0.024c-0.064 0.352-0.104 0.688-0.12 1.008s-0.056 0.656-0.12 1.008l-0.576 3.264c-0.16 1.024-0.36 2.048-0.6 3.072s-0.488 2.048-0.744 3.072l-0.672 2.304c-0.224 0.768-0.464 1.536-0.72 2.304-0.16 0.48-0.304 0.968-0.432 1.464s-0.272 0.984-0.432 1.464c-0.032 0.064-0.056 0.144-0.072 0.24s0.024 0.176 0.12 0.24c0.224-0.064 0.432-0.144 0.624-0.24s0.384-0.224 0.576-0.384c0.32-0.224 0.632-0.448 0.936-0.672 0.304-0.224 0.616-0.464 0.936-0.72 0.544-0.48 1.048-0.976 1.512-1.488s0.888-1.072 1.272-1.68c0.8-1.184 1.472-2.464 2.016-3.84 0.736-1.792 1.168-3.632 1.296-5.52 0-0.16 8e-3 -0.296 0.024-0.408s0.024-0.248 0.024-0.408v-0.96c0-0.128-8e-3 -0.24-0.024-0.336s-0.04-0.208-0.072-0.336c-0.064-0.32-0.12-0.64-0.168-0.96s-0.104-0.656-0.168-1.008c-0.064-0.16-0.128-0.296-0.192-0.408s-0.128-0.248-0.192-0.408c-0.384-0.512-0.816-0.992-1.296-1.44-0.416-0.352-0.848-0.624-1.296-0.816-0.224-0.064-0.432-0.12-0.624-0.168s-0.4-0.104-0.624-0.168c-0.008269-0.0082694-0.016539-0.016138-0.024808-0.023606zm-3.2872-4.2484h-0.048l0.048 0.048v-0.048zm0.95999 4.4624c1e-5 5.345e-4 1.4e-5 0.0010737 1.4e-5 0.0016174 0-0.0016312 4.2e-5 -0.0032209 1.25e-4 -0.004769l-1.39e-4 0.0031516zm-8.208 26.834v-0.048h-0.048l0.048 0.048zm25.248-23.96v-0.039527h0.048c-0.016163 0.012931-0.032163 0.026106-0.048 0.039527zv0.44047c-0.096 0.064-0.144 0.176-0.144 0.336-0.087635 0.029212-0.13527 0.12509-0.14291 0.28763 0.095272-0.032363 0.14291-0.12824 0.14291-0.28763 0.128-0.032 0.192-0.144 0.192-0.336 0.096001-0.032 0.16-0.088 0.192-0.168s0.08-0.168 0.144-0.264c0.256-0.48 0.52-0.96 0.792-1.44s0.552-0.96 0.84-1.44c0.256-0.416 0.536-0.824 0.84-1.224 0.304-0.4 0.632-0.776 0.984-1.128l0.576-0.48c0.192-0.16 0.4-0.32 0.624-0.48 0.128-0.064 0.256-0.12 0.384-0.168s0.272-0.104 0.432-0.168c0.544-0.16 1.056-0.4 1.536-0.72 0.064-0.032 0.112-0.072 0.144-0.12s0.08-0.104 0.144-0.168h-0.048c0.192 0 0.304-0.048 0.336-0.144 0.192 0 0.304-0.063999 0.336-0.192v0.048l1.536-0.384c0.032-0.032 0.048-0.056 0.048-0.072s0.016-0.04 0.048-0.072v0.048l0.288 0.096c0.096001 0.032 0.224 0.032 0.384 0-0.064-0.064-0.12-0.112-0.168-0.144s-0.104-0.08-0.168-0.144c0.16 0.064 0.336 0.112 0.528 0.144s0.384 0.048 0.576 0.048c0.16 0 0.328-0.016 0.504-0.048s0.344-0.064 0.504-0.096c0.832-0.096 1.552-0.016001 2.16 0.24 0.736 0.256 1.296 0.672 1.68 1.248 0.384 0.544 0.712 1.104 0.984 1.68s0.472 1.184 0.6 1.824c0.096001 0.48 0.184 0.968 0.264 1.464 0.080001 0.496 0.152 1 0.216 1.512 0.064 0.384 0.088 0.776 0.072 1.176s-8e-3 0.808 0.024 1.224c0 0.704-0.032 1.4-0.096 2.088s-0.144 1.368-0.24 2.04c-0.064 0.576-0.136 1.152-0.216 1.728-0.08 0.576-0.168 1.152-0.264 1.728-0.16 0.864-0.36 1.712-0.6 2.544s-0.52 1.664-0.84 2.496c-0.256 0.704-0.552 1.376-0.888 2.016s-0.696 1.28-1.08 1.92c-0.032 0.064-0.056 0.104-0.072 0.12s-0.04 0.056-0.072 0.12c-0.416 0.8-0.904 1.52-1.464 2.16s-1.16 1.264-1.8 1.872c-0.32 0.288-0.664 0.512-1.032 0.672s-0.744 0.272-1.128 0.336c-0.096 0.032-0.192 0.048-0.288 0.048-0.096 0-0.192 0.016-0.288 0.048-0.128 0.032-0.248 0.072-0.36 0.12-0.112 0.048-0.248 0.104-0.408 0.168 0.16 0.096 0.304 0.152 0.432 0.168s0.416 0.0080002 0.864-0.024c-0.512 0.192-0.944 0.272-1.296 0.24-0.16-0.032-0.336-0.056-0.528-0.072s-0.368-0.04-0.528-0.072c-0.032 0-0.112 0.032-0.24 0.096 0.096001 0.128 0.208 0.2 0.336 0.216s0.272 0.072 0.432 0.168c-0.16 0.064-0.312 0.088-0.456 0.072s-0.28-0.0080002-0.408 0.024c-0.256 0-0.504 0.0079999-0.744 0.024s-0.488 0.0080002-0.744-0.024h-0.648c-0.208 0-0.408-0.032-0.6-0.096-0.352-0.096-0.624-0.168-0.816-0.216s-0.376-0.104-0.552-0.168-0.352-0.16-0.528-0.288-0.408-0.288-0.696-0.48c-0.384-0.224-0.736-0.528-1.056-0.912l-0.144-0.144c-0.704-0.64-1.24-1.352-1.608-2.136s-0.664-1.624-0.888-2.52c-0.192-0.704-0.312-1.408-0.36-2.112s-0.056-1.424-0.024-2.16c0-0.736 0.04-1.456 0.12-2.16 0.080001-0.704 0.184-1.424 0.312-2.16 0.16-0.832 0.32-1.64 0.48-2.424s0.352-1.56 0.576-2.328c0.16-0.64 0.368-1.272 0.624-1.896s0.512-1.24 0.768-1.848c0.064-0.16 0.16-0.328 0.288-0.504 0.11507-0.15822 0.24307-0.29704 0.384-0.41647zm-0.31294 1.1143c-0.047376 0.007688-0.071064 0.039064-0.071064 0.094129v0.048l0.071064-0.14213zm3.7772 23.374c0.003882 0.0093726 0.009137 0.017372 0.015764 0.024 0.016 0.016 0.024 0.04 0.024 0.072 0.032 0 0.056-0.0079999 0.072-0.024s0.04-0.024 0.072-0.024l-0.048-0.048h-0.13576zm-0.98024-19.692c-8e-3 0.0079999-0.02 0.012-0.036 0.012-0.096 0.096-0.16 0.2-0.192 0.312s-0.08 0.216-0.144 0.312c-0.448 1.024-0.792 2.072-1.032 3.144s-0.44 2.168-0.6 3.288c-0.064 0.352-0.096 0.704-0.096 1.056s-0.032 0.704-0.096 1.056-0.096 0.688-0.096 1.008v1.008c0.032 0.704 0.24 1.392 0.624 2.064 0.064 0.16 0.176 0.272 0.336 0.336 0.096001 0.096 0.176 0.080001 0.24-0.048 0.064-0.16 0.064-0.24 0-0.24-0.128-0.032-0.192-0.16-0.192-0.384 0-0.288-8e-3 -0.584-0.024-0.888s-0.024-0.6-0.024-0.888c-0.032-0.512-0.048-1.008-0.048-1.488s0.032-0.976 0.096-1.488c0.032-0.384 0.056-0.768 0.072-1.152s0.056-0.752 0.12-1.104c0.224-1.536 0.512-3.072 0.864-4.608 0.064-0.224 0.12-0.44 0.168-0.648s0.056-0.424 0.024-0.648c0.016 0 0.028-4e-3 0.036-0.012zm11.328 4.272c8e-3 -8e-3 0.012-0.02 0.012-0.036 0.032-0.064 0.064-0.12 0.096-0.168s0.048-0.104 0.048-0.168c0.064-0.416 0.128-0.816 0.192-1.2s0.128-0.784 0.192-1.2l0.192-1.44c0.064-0.48 0.096-0.96 0.096-1.44 0-0.64 0.048-1.28 0.144-1.92 0.032-0.352 0.04-0.72 0.024-1.104s-0.056-0.768-0.12-1.152c-0.064-0.352-0.152-0.704-0.264-1.056-0.112-0.352-0.2-0.704-0.264-1.056-0.032-0.224-0.192-0.416-0.48-0.576l-0.024-0.024c-4e-3 0.02 8e-3 0.024 0.024 0.024 0.128 0.256 0.208 0.448 0.24 0.576 0.064 0.128 0.032001 0.208-0.096 0.24-0.064-0.128-0.136-0.248-0.216-0.36-0.08-0.112-0.152-0.248-0.216-0.408-0.096-0.128-0.184-0.256-0.264-0.384-0.08-0.128-0.168-0.256-0.264-0.384-0.224-0.256-0.464-0.368-0.72-0.336-0.064 0.16-0.12 0.304-0.168 0.432s-0.152 0.256-0.312 0.384l-1.728 1.584c-0.704 0.64-1.264 1.36-1.68 2.16-0.256 0.416-0.488 0.824-0.696 1.224s-0.424 0.824-0.648 1.272c-0.384 0.8-0.728 1.608-1.032 2.424-0.304 0.816-0.552 1.656-0.744 2.52-0.16 0.64-0.296 1.288-0.408 1.944-0.112 0.656-0.216 1.304-0.312 1.944-0.064 0.384-0.104 0.776-0.12 1.176s-0.04 0.792-0.072 1.176c-0.032 0.544-0.024 1.08 0.024 1.608s0.104 1.064 0.168 1.608c0.064 0.576 0.2 1.112 0.408 1.608s0.52 0.952 0.936 1.368c0.16 0.16 0.328 0.296 0.504 0.408s0.392 0.168 0.648 0.168c0.288-0.128 0.608-0.336 0.96-0.624 1.024-0.8 1.904-1.76 2.64-2.88 0.352-0.544 0.672-1.104 0.96-1.68l0.864-1.728c0.096001-0.256 0.2-0.496 0.312-0.72 0.112-0.224 0.2-0.464 0.264-0.72 0.16-0.64 0.304-1.296 0.432-1.968s0.24-1.328 0.336-1.968l0.144-0.288v1.104c0 0.016-4e-3 0.028-0.012 0.036zm-0.084-13.428c-0.096-0.512-0.336-0.848-0.72-1.008-0.064-0.064-0.136-0.096-0.216-0.096-0.08 0-0.152-0.016-0.216-0.048-0.064 0-0.12 0.024-0.168 0.072s-0.056 0.104-0.024 0.168c0.064 0.16 0.144 0.256 0.24 0.288 0.064 0.064 0.152 0.112 0.264 0.144 0.112 0.032 0.216 0.08 0.312 0.144 0.096001 0.064 0.184 0.12 0.264 0.168 0.080001 0.048 0.168 0.104 0.264 0.168zm-7.536-1.008c-0.256 0.032-0.456 0.096-0.6 0.192s-0.264 0.224-0.36 0.384v0.24c0.16-0.128 0.32-0.248 0.48-0.36s0.32-0.264 0.48-0.456zm-4.224 26.784c0.096001 0.32 0.168 0.504 0.216 0.552s0.184 0.088 0.408 0.12c-0.096-0.096-0.184-0.192-0.264-0.288-0.08-0.096-0.2-0.224-0.36-0.384zm13.392-27.12c0-0.16-0.079999-0.24-0.24-0.24h-0.096v0.096c0.064 0.128 0.16 0.192 0.288 0.192l0.048-0.048zm-10.608 30.384c-0.192-0.064-0.336-0.08-0.432-0.048-0.032 0-0.048 0.0079999-0.048 0.024s-0.016 0.024-0.048 0.024c0 0.032 8e-3 0.048 0.024 0.048s0.024 0.016 0.024 0.048c0.192 0.064 0.352 0.032001 0.48-0.096zm-3.12-5.808c-0.032 0-0.048-0.032-0.048-0.096-0.032 0-0.048 0.016-0.048 0.048v0.144l0.096-0.096zm12.096-9.36v0.048h0.048l-0.048-0.048zm-12.144 11.76v-0.096h-0.048v0.048c0.032 0 0.048 0.016 0.048 0.048zm28.568-11.704c-0.005491 0.0077644-0.008236 0.021019-0.008236 0.039764-0.064-0.032-0.128-0.048-0.192-0.048s-0.128-0.016-0.192-0.048c0-0.064 8e-3 -0.112 0.024-0.144s0.024-0.064 0.024-0.096c0.16-0.192 0.328-0.392 0.504-0.6s0.392-0.392 0.648-0.552c0.096001-0.064 0.208-0.128 0.336-0.192s0.224-0.128 0.288-0.192c0.256-0.16 0.504-0.32 0.744-0.48s0.504-0.304 0.792-0.432c0.224-0.128 0.416-0.336 0.576-0.624 0.096001-0.352 0.2-0.696 0.312-1.032 0.112-0.336 0.232-0.68 0.36-1.032 0.256-0.768 0.536-1.536 0.84-2.304 0.304-0.768 0.6-1.536 0.888-2.304 0.128-0.224 0.24-0.464 0.336-0.72l0.144 0.144c0.032 0.032 0.064 0.08 0.096 0.144 0.064-0.096 0.16-0.272 0.288-0.528l-0.288-0.096c-0.096-0.032-0.176-0.064-0.24-0.096 0-0.032 0.032-0.112 0.096-0.24-0.16-0.032-0.344-0.024-0.552 0.024s-0.376-0.023999-0.504-0.216c0.064-0.128 0.088-0.208 0.072-0.24s-0.087999-0.096-0.216-0.192c0.096001-0.128 0.16-0.272 0.192-0.432 0.064-0.064 0.072-0.128 0.024-0.192s-0.104-0.096-0.168-0.096h-0.624c-0.128-0.096-0.128-0.208 0-0.336 0.256-0.128 0.416-0.224 0.48-0.288-0.064-0.064-0.112-0.144-0.144-0.24s-0.08-0.176-0.144-0.24c0.192-0.384 0.448-0.688 0.768-0.912 0.512-0.416 1.088-0.72 1.728-0.912 0.544-0.128 1.072-0.28 1.584-0.456 0.512-0.176 1.024-0.36 1.536-0.552 0.736-0.256 1.472-0.464 2.208-0.624s1.488-0.304 2.256-0.432c1.28-0.192 2.576-0.288 3.888-0.288 0.608 0.032 1.2 0.176 1.776 0.432 0.16 0.064 0.312 0.128 0.456 0.192s0.296 0.128 0.456 0.192c0.448 0.16 0.752 0.384 0.912 0.672 0.064 0.096 0.12 0.184 0.168 0.264s0.104 0.168 0.168 0.264c0.288 0.448 0.368 0.896 0.24 1.344-0.032 0.096-0.08 0.272-0.144 0.528-0.128 0.064-0.256 0.112-0.384 0.144s-0.272 0.08-0.432 0.144c-0.416 0.096-0.64 0.336-0.672 0.72v0.432c-0.128 0.096-0.24 0.16-0.336 0.192-0.096 0.032-0.208 0.064-0.336 0.096-0.448 0.064-0.912 0.112-1.392 0.144-0.48 0.032-0.96 0.048-1.44 0.048-0.192 0-0.376 0.0079999-0.552 0.024s-0.344 0.04-0.504 0.072c-0.128 0-0.24 0.0079999-0.336 0.024-0.096 0.016-0.208 0.024-0.336 0.024-0.8 0.032-1.6 0.088-2.4 0.168s-1.568 0.2-2.304 0.36c-0.064 0-0.128 0.032-0.192 0.096l-0.144 0.144c0.064 0.448 0.040001 0.896-0.072 1.344-0.112 0.448-0.216 0.912-0.312 1.392-0.256 1.216-0.592 2.384-1.008 3.504-0.064 0.128-0.104 0.256-0.12 0.384s-0.04 0.256-0.072 0.384c0.16 0.128 0.304 0.184 0.432 0.168s0.256-0.04 0.384-0.072c0.32-0.064 0.632-0.096 0.936-0.096 0.304 0 0.6-0.016 0.888-0.048 0.736-0.032 1.456 0.047999 2.16 0.24 0.288 0.064 0.576 0.16 0.864 0.288 0.288 0.096 0.464 0.176 0.528 0.24s0.16 0.272 0.288 0.624c0.416 0.096 0.776 0.248 1.08 0.456 0.304 0.208 0.456 0.584 0.456 1.128-0.096 0.064-0.192 0.144-0.288 0.24-0.096 0.096-0.192 0.176-0.288 0.24-0.064 0.032-0.128 0.048-0.192 0.048s-0.128 0.032-0.192 0.096c-0.384 0.16-0.752 0.192-1.104 0.096-0.064-0.064-0.176-0.088-0.336-0.072s-0.304 0.056-0.432 0.12c0.256 0.032 0.488 0.056 0.696 0.072s0.424 0.056 0.648 0.12c0.12469 0.062344 0.17346 0.15505 0.14632 0.27812-0.23137-0.041898-0.39214 0.057394-0.48232 0.29788-0.224-0.032-0.448-0.04-0.672-0.024s-0.464-0.0079997-0.72-0.072c-0.352-0.064-0.696-0.096-1.032-0.096s-0.68 0.032-1.032 0.096c-0.416 0.064-0.808 0.112-1.176 0.144s-0.744 0.08-1.128 0.144c-0.32 0.064-0.632 0.12-0.936 0.168-0.304 0.048-0.6 0.104-0.888 0.168-0.064 0.16-0.112 0.256-0.144 0.288-0.288 0.704-0.080003 0.96 0.624 0.768 0.704-0.128 1.384-0.248 2.04-0.36s1.336-0.2 2.04-0.264c0.288-0.032 0.584-0.064 0.888-0.096 0.304-0.032 0.616-0.048 0.936-0.048-0.128 0.064-0.288 0.192-0.48 0.384 0.064 0.032 0.12 0.048 0.168 0.048s0.104 0.016 0.168 0.048v0.048c-0.256 0.064-0.504 0.128-0.744 0.192s-0.488 0.128-0.744 0.192c-0.448 0.096-0.904 0.184-1.368 0.264s-0.936 0.168-1.416 0.264c-0.352 0.032-0.696 0.08-1.032 0.144s-0.664 0.128-0.984 0.192c-0.096 0-0.2 0.016-0.312 0.048-0.112 0.032-0.216 0.064-0.312 0.096-0.064 0.16-0.12 0.296-0.168 0.408s-0.088 0.232-0.12 0.36c-0.256 0.768-0.504 1.536-0.744 2.304s-0.488 1.536-0.744 2.304c-0.096 0.32-0.184 0.648-0.264 0.984-0.08 0.336-0.152 0.664-0.216 0.984 0 0.064 8e-3 0.12 0.024 0.168s8e-3 0.104-0.024 0.168c0.192-0.032 0.392-0.056 0.6-0.072s0.392-0.056 0.552-0.12c0.672-0.16 1.36-0.296 2.064-0.408 0.704-0.112 1.392-0.248 2.064-0.408 0.64-0.128 1.248-0.2 1.824-0.216s1.136-0.0080002 1.68 0.024c0.192 0 0.32 0.016 0.384 0.048 0.288 0.096 0.568 0.136 0.84 0.12s0.552-0.056 0.84-0.12c0.32-0.032 0.688-5e-7 1.104 0.096 0.032 0.032 0.072 0.064 0.12 0.096s0.072 0.064 0.072 0.096c-0.032 0.16-8e-3 0.248 0.072 0.264 0.080001 0.016 0.152 0.056 0.216 0.12 0.192 0.096 0.256 0.256 0.192 0.48 0 0.192-0.063999 0.288-0.192 0.288-0.16 0.032-0.32 0.048-0.48 0.048h-0.48l-0.144 0.072c-0.032 0.016-0.08 0.072-0.144 0.168 0.064 0.032 0.112 0.048 0.144 0.048s0.08 0.016 0.144 0.048h0.768c0.16 0 0.264 0.055999 0.312 0.168s0.008001 0.248-0.12 0.408c-0.064 0.064-0.16 0.096-0.288 0.096-0.192-0.064-0.392-0.08-0.6-0.048s-0.424 0.064-0.648 0.096c-0.064 0-0.096 0.048-0.096 0.144 0 0.032 0.032 0.08 0.096 0.144 0.096001 0.032 0.2 0.056 0.312 0.072 0.112 0.016 0.248 0.04 0.408 0.072-0.064 0.128-0.144 0.192-0.24 0.192-0.16 0.032-0.4 0.112-0.72 0.24-0.16 0.064-0.312 0.096-0.456 0.096s-0.296 0.016-0.456 0.048c-0.064 0.032-0.104 0.048-0.12 0.048s-0.071999 0.048-0.168 0.144c0.064 0.032 0.128 0.056 0.192 0.072s0.128 0.056 0.192 0.12c-0.256 0.032-0.504 0.048-0.744 0.048s-0.488 0.016-0.744 0.048c-0.544 0.064-1.088 0.152-1.632 0.264s-1.104 0.232-1.68 0.36c-0.64 0.16-1.272 0.296-1.896 0.408s-1.256 0.232-1.896 0.36c-0.256 0.064-0.512 0.112-0.768 0.144s-0.528 0.048-0.816 0.048c-0.416 0.032-0.824 0.088-1.224 0.168s-0.824 0.104-1.272 0.072c-0.384 0-0.736-0.095999-1.056-0.288l-0.288-0.144c-0.448-0.16-0.792-0.4-1.032-0.72s-0.424-0.672-0.552-1.056c-0.192-0.8-0.208-1.696-0.048-2.688 0.128-0.96 0.328-1.92 0.6-2.88s0.568-1.92 0.888-2.88c0.16-0.384 0.296-0.768 0.408-1.152 0.112-0.384 0.232-0.768 0.36-1.152 0-0.064-0.063999-0.192-0.192-0.384 0.032-0.096 0.112-0.24 0.24-0.432-0.192-0.192-0.192-0.4 0-0.624-0.16-0.032-0.312-0.024-0.456 0.024s-0.296 0.104-0.456 0.168c-0.128 0.064-0.248 0.136-0.36 0.216-0.112 0.08-0.2 0.152-0.264 0.216-0.096-0.032-0.16-0.08-0.192-0.144s-0.048-0.128-0.048-0.192c0.032-0.16 0.04-0.336 0.024-0.528s0.024-0.384 0.12-0.576c0-0.013255 0.002745-0.02651 0.008236-0.039764zm16.122-0.16211c0.014932 0.0027039 0.030157 0.0059957 0.045676 0.0098755h-0.048c8.28e-4 -0.0033133 0.001603-0.0066051 0.002324-0.0098755zm-7.3943 0.15388h0.096c0.032 0 0.048-0.016 0.048-0.048-0.032-0.032-0.064-0.032-0.096 0l-0.048 0.048zm-3.984 6.336l0.096-0.096v-0.096l-0.048 0.048c0 0.064-0.016 0.112-0.048 0.144zc-0.128 0.096-0.192 0.208-0.192 0.336v0.432c0.096001-0.16 0.144-0.304 0.144-0.432s0.016-0.24 0.048-0.336zm8.328-6.96h-0.552c-0.192 0-0.4 0.016-0.624 0.048-0.096 0-0.208 0.032-0.336 0.096 0 0.016-2e-3 0.028-6e-3 0.036 4e-3 -8e-3 6e-3 -0.02 6e-3 -0.036h1.152c0.064 0 0.12-0.016 0.168-0.048s0.104-0.064 0.168-0.096h0.024zm-2.52 0.33604c-0.38773 6.009e-4 -0.62771 0.0085886-0.71996 0.023963-0.096 0.016-0.24 0.104-0.432 0.264 0.16-0.032 0.328-0.064 0.504-0.096s0.36-0.064 0.552-0.096c0.032 0 0.048-0.016 0.048-0.048l0.047963-0.047963zm-0.91196-9.312v0.816c0.192-0.448 0.368-0.864 0.528-1.248s0.272-0.768 0.336-1.152c0-0.032-0.016-0.056-0.048-0.072s-0.048-0.04-0.048-0.072c-0.48-0.032-0.736 0.128-0.768 0.48-0.128 0.288-0.224 0.608-0.288 0.96 0 0.064-8e-3 0.136-0.024 0.216s-0.024 0.184-0.024 0.312c0.192-0.128 0.304-0.208 0.336-0.24zm-5.136 16.992c-0.256 0.448-0.456 0.888-0.6 1.32s-0.296 0.872-0.456 1.32c0 0.128-0.016 0.248-0.048 0.36s-0.016 0.232 0.048 0.36 0.144 0.144 0.24 0.048c0.128-0.096 0.224-0.224 0.288-0.384 0.064-0.448 0.144-0.88 0.24-1.296 0.096001-0.416 0.176-0.832 0.24-1.248 0-0.064 8e-3 -0.144 0.024-0.24s0.024-0.176 0.024-0.24zm4.704-15.936c-0.128 0.096-0.192 0.176-0.192 0.24v0.096c0.032 0 0.056-0.0079999 0.072-0.024s0.04-0.024 0.072-0.024c0-0.096 0.016-0.192 0.048-0.288zm-0.48 1.152c0 0.032-0.032 0.08-0.096 0.144 0.064 0.128 0.096 0.128 0.096 0 0.032 0 0.048-0.032 0.048-0.096l-0.048-0.048zm-3.648 12.816v-0.048c0 0.032-8e-3 0.048-0.024 0.048s-0.024 0.016-0.024 0.048l0.048-0.048zm1.248-15.264v-0.048h-0.048v0.048h0.048zm3.1202 1.494c-1.33e-4 -0.0019302-2e-4 -0.0039268-2e-4 -0.00599 0 6.877e-4 -4e-6 0.0013681-1.1e-5 0.002041l2.11e-4 0.003949zm-8.6402 22.506l0.048-0.048h-0.096c0 0.032 0.016 0.048 0.048 0.048zm7.776-19.776h0.048v-0.048l-0.048 0.048zm-0.912 1.488l-0.048 0.048v0.096l0.048-0.048v-0.096zm3.456 3.744h-0.096l0.048 0.048 0.048-0.048zm2.88 0.048l0.048-0.048h-0.048v0.048zm0.816-0.048v0.048l0.048-0.048h-0.048zm-2.928 0.192v-0.048h-0.048l0.048 0.048zm-5.52 1.392l-0.048 0.048c0 0.032 0.016 0.064 0.048 0.096v-0.144zm7.248 0.144h-0.096v0.048l0.096-0.048zm-7.488 0.528v0.048c0 0.032 0.016 0.048 0.048 0.048v-0.048l-0.048-0.048zm-0.384 1.392l-0.048 0.048c0 0.032-0.016 0.064-0.048 0.096l0.096-0.048v-0.096zm17.328 10.176c0.064 0 0.096 0.032 0.096 0.096 0.032 0 0.056-0.0079999 0.072-0.024 0.015589-0.015589 0.038773-0.023584 0.069551-0.023984-0.031921-0.0012958-0.045551-0.0092483-0.045551-0.024016 0-0.016-0.016-0.024-0.048-0.024h-0.144zm0.23755 0.048016c8.11e-4 -1.05e-5 0.001627-1.58e-5 0.002449-1.58e-5 -0.002465 0-0.004835-4.75e-5 -0.00711-1.424e-4l0.004661 1.582e-4zm-0.23755-0.048016c-0.064-0.096-0.136-0.144-0.216-0.144-0.08 0-0.168-0.016-0.264-0.048-0.128-0.064-0.24-0.144-0.336-0.24-0.096-0.096-0.208-0.192-0.336-0.288 0.096001-0.064 0.192-0.056 0.288 0.024 0.096001 0.08 0.208 0.056001 0.336-0.072-0.128-0.096-0.264-0.176-0.408-0.24s-0.296-0.128-0.456-0.192c-0.256-0.128-0.432-0.224-0.528-0.288-0.128-0.192-0.144-0.352-0.048-0.48 0.128-0.032 0.232-0.0080004 0.312 0.072 0.080001 0.08 0.184 0.152 0.312 0.216l0.72 0.288c0.128 0.032 0.248 0.072 0.36 0.12 0.112 0.048 0.248 0.072 0.408 0.072-0.064-0.096-0.12-0.168-0.168-0.216s-0.088-0.104-0.12-0.168c-0.032-0.16-0.087999-0.272-0.168-0.336-0.08-0.064-0.168-0.128-0.264-0.192-0.16-0.096-0.312-0.192-0.456-0.288s-0.296-0.208-0.456-0.336c0.064-0.096 0.136-0.12 0.216-0.072 0.080001 0.048 0.152 0.04 0.216-0.024s0.12-0.104 0.168-0.12 0.104-0.056 0.168-0.12h0.192c0.096001-0.032 0.144-0.056 0.144-0.072s-0.032-0.104-0.096-0.264c0.064-0.064 0.136-0.072 0.216-0.024 0.080001 0.048 0.152 0.056 0.216 0.024 0.064-0.064 0.128-0.112 0.192-0.144s0.144-0.032 0.24 0c0.096001 0.032 0.256 0.048 0.48 0.048 0.512 0.064 1.024 0.104 1.536 0.12 0.512 0.016 1.024 0.056 1.536 0.12 0.224 0.032 0.44 0.056 0.648 0.072s0.408 0.04 0.6 0.072c0.256 0.064 0.496 0.096 0.72 0.096h3.264c1.088 0 2.16-0.095999 3.216-0.288 0.128 0 0.24-0.079999 0.336-0.24l-0.24-0.24c-0.672-0.48-1.376-0.92-2.112-1.32s-1.52-0.728-2.352-0.984c-0.864-0.256-1.72-0.536-2.568-0.84s-1.688-0.6-2.52-0.888c-0.832-0.352-1.6-0.88-2.304-1.584-0.576-0.576-0.736-1.28-0.48-2.112 0.032-0.16 0.08-0.328 0.144-0.504s0.128-0.344 0.192-0.504c-0.064-0.032-0.112-0.048-0.144-0.048s-0.08-0.016-0.144-0.048c0.032-0.096 0.032-0.192 0-0.288s-0.08-0.208-0.144-0.336c-0.096-0.192-0.144-0.384-0.144-0.576-0.128-0.448-0.168-0.88-0.12-1.296s0.152-0.832 0.312-1.248c0.096001-0.352 0.2-0.68 0.312-0.984 0.112-0.304 0.264-0.6 0.456-0.888 0.032-0.064 0.048-0.12 0.048-0.168s0.032-0.088 0.096-0.12c0.288-0.224 0.496-0.56 0.624-1.008 0.032-0.064 0.064-0.104 0.096-0.12s0.064-0.04 0.096-0.072c0.256-0.256 0.472-0.52 0.648-0.792s0.344-0.568 0.504-0.888c-0.064-0.096-0.072-0.168-0.024-0.216l0.168-0.168c0.288-0.16 0.512-0.368 0.672-0.624s0.288-0.544 0.384-0.864c0-0.128 0.032-0.192 0.096-0.192 0.16-0.064 0.272-0.176 0.336-0.336s0.176-0.304 0.336-0.432c0.16-0.224 0.336-0.432 0.528-0.624l0.576-0.576c1.184-1.248 2.48-2.352 3.888-3.312 0.32-0.224 0.624-0.44 0.912-0.648 0.288-0.208 0.592-0.408 0.912-0.6 0.608-0.384 1.224-0.728 1.848-1.032s1.288-0.536 1.992-0.696c0.064-0.032 0.136-0.048 0.216-0.048 0.080001 0 0.152-0.016 0.216-0.048 0.032 0 0.056 0.0079999 0.072 0.024s0.04 0.024 0.072 0.024c-0.064 0.064-0.104 0.112-0.12 0.144s-0.04 0.064-0.072 0.096c-0.192 0-0.304 0.048-0.336 0.144l-0.024 0.024 0.024-0.024c0.192 0 0.304-0.048 0.336-0.144 0.16 0.032 0.304 0.024 0.432-0.024s0.272-0.104 0.432-0.168c0.832-0.352 1.792-0.448 2.88-0.288 0.512 0.064 1.008 0.16 1.488 0.288 0.48 0.128 0.944 0.304 1.392 0.528 0.416 0.256 0.752 0.512 1.008 0.768-0.032 0.128-0.048 0.32-0.048 0.576 0.064 0.032 0.12 0.064 0.168 0.096s0.104 0.08 0.168 0.144c0.864 0.608 1.248 1.376 1.152 2.304h-0.048c0-0.032-8e-3 -0.048-0.024-0.048s-0.024-0.016-0.024-0.048c-0.192-0.128-0.288-0.128-0.288 0-0.064 0.16-0.104 0.304-0.12 0.432s-0.104 0.24-0.264 0.336l-0.024-0.024 0.024 0.024c-0.032 0.064-0.056 0.144-0.072 0.24s-0.056 0.176-0.12 0.24c-0.032 0.064-0.087999 0.12-0.168 0.168-0.08 0.048-0.152 0.104-0.216 0.168 0.064 0.128 0.112 0.256 0.144 0.384s0.08 0.272 0.144 0.432c0.128 0.32 0.128 0.704 0 1.152-0.064 0.16-0.128 0.256-0.192 0.288s-0.208 5e-7 -0.432-0.096c0-0.064 8e-3 -0.144 0.024-0.24s0.024-0.192 0.024-0.288c0.032-0.192-0.015999-0.336-0.144-0.432l-0.192-0.192c-0.064-0.064-0.16-0.048-0.288 0.048h-0.096l-0.168-0.168c-0.048-0.048-0.104-0.072-0.168-0.072-0.288 0-0.464-0.079999-0.528-0.24-0.32-0.352-0.72-0.416-1.2-0.192-0.384 0.192-0.776 0.376-1.176 0.552s-0.792 0.392-1.176 0.648c-0.128 0.096-0.248 0.176-0.36 0.24-0.112 0.064-0.232 0.128-0.36 0.192h0.048c-0.288 0.032-0.56 0.176-0.816 0.432-0.032 0.032-0.056 0.064-0.072 0.096s-0.056 0.064-0.12 0.096c0.032-0.064 0.064-0.104 0.096-0.12s0.064-0.04 0.096-0.072c0.032 0.032 0.064 0.048 0.096 0.048s0.08 0.016 0.144 0.048c-0.256 0.288-0.52 0.552-0.792 0.792s-0.536 0.488-0.792 0.744c-0.704 0.64-1.384 1.296-2.04 1.968s-1.272 1.376-1.848 2.112c-0.48 0.608-0.952 1.224-1.416 1.848s-0.92 1.256-1.368 1.896c-0.064 0.064-0.112 0.144-0.144 0.24s-0.08 0.176-0.144 0.24c0.032 0.192 0.176 0.32 0.432 0.384 0.384 0.192 0.768 0.368 1.152 0.528s0.784 0.32 1.2 0.48c0.704 0.352 1.376 0.72 2.016 1.104s1.248 0.832 1.824 1.344c0.16 0.16 0.336 0.304 0.528 0.432 0.16 0.16 0.256 0.288 0.288 0.384 0.224 0.384 0.448 0.672 0.672 0.864 0.352 0.288 0.672 0.656 0.96 1.104 0.16 0.256 0.32 0.48 0.48 0.672s0.336 0.384 0.528 0.576c0.576 0.736 0.912 1.536 1.008 2.4 0.064 0.32 0.096 0.592 0.096 0.816 0.064 0.704-0.144 1.248-0.624 1.632-0.16 0.16-0.272 0.328-0.336 0.504s-0.16 0.344-0.288 0.504l0.048-0.048c-0.128 0.128-0.192 0.208-0.192 0.24s0.063999 0.128 0.192 0.288h-0.048c-0.032 0.192-0.12 0.352-0.264 0.48s-0.296 0.24-0.456 0.336c-0.224 0.16-0.448 0.312-0.672 0.456s-0.464 0.296-0.72 0.456c-0.128 0.032-0.192 0.144-0.192 0.336-0.128-0.064-0.256-0.08-0.384-0.048-0.096 0.032-0.168 0.072-0.216 0.12s-0.136 0.152-0.264 0.312c0.16-0.096 0.32-0.152 0.48-0.168s0.288-0.087999 0.384-0.216c0.096001-0.064 0.24-0.128 0.432-0.192s0.32-0.112 0.384-0.144c-0.736 0.768-1.632 1.248-2.688 1.44-0.352 0.032-0.696 0.064-1.032 0.096s-0.68 0.032-1.032 0h-0.72c-0.864 0.064-1.712 0.040001-2.544-0.072s-1.664-0.28-2.496-0.504c-0.32-0.064-0.632-0.144-0.936-0.24-0.304-0.096-0.632-0.192-0.984-0.288l0.096-0.192-0.144-0.144c-0.384-0.256-0.784-0.464-1.2-0.624s-0.848-0.32-1.296-0.48c-0.096-0.064-0.2-0.12-0.312-0.168-0.112-0.048-0.216-0.12-0.312-0.216-0.032-0.064-0.087999-0.104-0.168-0.12-0.08-0.016-0.152-0.056-0.216-0.12-0.256-0.128-0.512-0.248-0.768-0.36s-0.496-0.248-0.72-0.408l-0.192-0.192c0.064-0.032 0.112-0.048 0.144-0.048s0.064-0.016 0.096-0.048c0.096001 0.128 0.256 0.192 0.48 0.192zm16.608-23.184h-0.096c-0.032 0-0.048 0.0079999-0.048 0.024s-0.016 0.024-0.048 0.024l0.096 0.048 0.096-0.096zm1.104 24.48c0.032 0 0.048-0.016 0.048-0.048l0.192-0.192v-0.048l-0.048 0.048c-0.064 0.064-0.112 0.128-0.144 0.192l-0.048 0.048zm6.432-29.376v0.144l0.048 0.048 0.048-0.096-0.096-0.096c0-0.064-0.016-0.112-0.048-0.144l-0.048-0.048v0.096l0.096 0.096zm-4.3056-0.96c-0.11146-0.064-0.18026-0.096-0.20638-0.096-0.032 0-0.112 0.032-0.24 0.096h0.44638zm3.6576 2.4h-0.024c0.032-0.032 0.048-0.08 0.048-0.144 0.064-0.096 0.064-0.192 0-0.288s-0.112-0.112-0.144-0.048c-0.064 0.064-0.064 0.192 0 0.384l0.096 0.096h0.024zm-13.238 9.9502c-0.20057 0.20326-0.38796 0.40651-0.56218 0.60977-0.192 0.224-0.32 0.464-0.384 0.72-0.096 0.064-0.184 0.128-0.264 0.192-0.08 0.064-0.152 0.128-0.216 0.192-0.032 0.032-0.04 0.072-0.024 0.12s0.024 0.104 0.024 0.168c-0.288 0.16-0.464 0.416-0.528 0.768-0.032 0.032-0.064 0.056-0.096 0.072s-0.064 0.056-0.096 0.12v0.192c0.032-0.032 0.056-0.048 0.072-0.048s0.04-0.016 0.072-0.048c0.032-0.064 0.048-0.112 0.048-0.144s0.016-0.08 0.048-0.144c0.32-0.16 0.48-0.416 0.48-0.768 0.224-0.064 0.4-0.272 0.528-0.624 0.46351-0.3399 0.7629-0.79916 0.89818-1.3778zm-9.9222 3.1298v-0.024c0.256 0 0.4-0.095999 0.432-0.288-0.192-0.416-0.304-0.704-0.336-0.864s-0.032-0.464 0-0.912c-0.128 0.064-0.2 0.136-0.216 0.216s-0.04 0.168-0.072 0.264c-0.032 0.128-0.048 0.288-0.048 0.48 0 0.032 0.032 0.08 0.096 0.144 0.192 0.224 0.16 0.384-0.096 0.48-0.064 0-0.064 0.063999 0 0.192 0.032 0.064 0.112 0.16 0.24 0.288v0.024zm20.064-13.896c-0.352-0.64-0.96-0.992-1.824-1.056h-0.096c-0.192-0.064-0.36-0.072-0.504-0.024s-0.296 0.104-0.456 0.168c-0.512 0.224-0.976 0.576-1.392 1.056-0.032 0-0.048 0.048-0.048 0.144 0.096001 0.064 0.256 0.064 0.48 0 0.16-0.064 0.336-0.12 0.528-0.168s0.384-0.072 0.576-0.072c0.416-0.032 0.824-0.048 1.224-0.048s0.808 0.032 1.224 0.096c0.064 0 0.16-0.032 0.288-0.096zm1.104 0.096c-0.256-0.256-0.488-0.504-0.696-0.744s-0.536-0.376-0.984-0.408c0.256 0.192 0.496 0.392 0.72 0.6s0.464 0.408 0.72 0.6h0.048c0.032 0 0.096-0.016 0.192-0.048zm0.48-1.008c0.096001 0.192 0.168 0.352 0.216 0.48s0.104 0.256 0.168 0.384c0.064 0.224 0.16 0.336 0.288 0.336 0.064 0 0.096-0.048 0.096-0.144s-0.032-0.208-0.096-0.336-0.136-0.256-0.216-0.384c-0.08-0.128-0.232-0.24-0.456-0.336zm-21.264 15.216c-0.032-0.032-0.064-0.048-0.096-0.048v0.048h0.096zm4.896 15.744l-0.048-0.048v0.048h0.048zm10.224-30.096v-0.048l-0.096 0.048h0.096zm-13.584 10.464l-0.048-0.048v0.048h0.048zm49.913-9.1974c-0.12796 0.34216-0.31768 0.58397-0.56915 0.72542-0.256 0.144-0.544 0.264-0.864 0.36-0.16 0.032-0.32 0.048-0.48 0.048s-0.32 0.016-0.48 0.048c-0.16 0-0.272-0.016-0.336-0.048-0.192-0.16-0.392-0.224-0.6-0.192s-0.44 0.048-0.696 0.048c-0.256 0.032-0.488 0.048-0.696 0.048h-0.696l-1.008 0.144c-0.416 0.064-0.816 0.128-1.2 0.192s-0.784 0.112-1.2 0.144l-1.44 0.144c-0.288 0.064-0.576 0.096-0.864 0.096-0.288 0-0.576 0.016-0.864 0.048-0.32 0.064-0.432 0.208-0.336 0.432 0.128 0.416 0.208 0.824 0.24 1.224s0.032 0.792 0 1.176-0.056 0.776-0.072 1.176-0.056 0.792-0.12 1.176c-0.128 0.736-0.248 1.472-0.36 2.208-0.112 0.736-0.248 1.472-0.408 2.208-0.16 0.704-0.336 1.408-0.528 2.112s-0.368 1.408-0.528 2.112c-0.352 1.216-0.688 2.44-1.008 3.672-0.32 1.232-0.672 2.456-1.056 3.672-0.16 0.448-0.32 0.872-0.48 1.272s-0.32 0.824-0.48 1.272c-0.096 0.256-0.2 0.52-0.312 0.792-0.112 0.272-0.216 0.536-0.312 0.792l-0.096 0.192c-0.032 0.064-0.08 0.128-0.144 0.192-0.064-0.032-0.128-0.048-0.192-0.048-0.032 0.064-0.064 0.136-0.096 0.216s-0.064 0.152-0.096 0.216c-0.064 0.256-0.168 0.448-0.312 0.576s-0.312 0.272-0.504 0.432l-0.768 0.576c-0.16 0.096-0.32 0.168-0.48 0.216s-0.32 0.104-0.48 0.168c-0.064-0.16-0.072-0.304-0.024-0.432s0.088-0.256 0.12-0.384c0-0.16 0.032-0.304 0.096-0.432s0.048001-0.272-0.048-0.432c-0.064 0.128-0.128 0.248-0.192 0.36s-0.128 0.232-0.192 0.36l-0.011508-0.011508c-0.024328 0.081918-0.036492 0.15775-0.036492 0.22751 0 0.08-0.032 0.152-0.096 0.216l-0.24 0.24c-0.096 0.096-0.176 0.208-0.24 0.336-0.064 0.032-0.12 5e-7 -0.168-0.096s-0.104-0.112-0.168-0.048c-0.128 0.064-0.192 0.056-0.192-0.024s-0.032-0.136-0.096-0.168c-0.064 0.032-0.12 0.08-0.168 0.144s-0.136 0.048-0.264-0.048c-0.064-0.032-0.16-0.048-0.288-0.048-0.288 0-0.448-0.095999-0.48-0.288 0-0.096-0.047999-0.144-0.144-0.144-0.16 0-0.264-0.048-0.312-0.144s-0.088-0.208-0.12-0.336c-0.064 0-0.112 0.0079999-0.144 0.024s-0.08 0.0080002-0.144-0.024c-0.032 0-0.048-0.063999-0.048-0.192l0.096-0.384c0.032-0.128 0.064-0.272 0.096-0.432 0-0.16-0.095999-0.272-0.288-0.336h-0.192c-0.128 0-0.192-0.048-0.192-0.144 0.064-0.224 0.072-0.432 0.024-0.624s-0.072-0.368-0.072-0.528c0-0.032 0.032-0.08 0.096-0.144 0 0.064 0.016 0.112 0.048 0.144 0 0.030117 0.014172 0.046061 0.042516 0.047834-0.061279-0.069484-0.090516-0.13066-0.090516-0.19183 0.096001-0.608 0.232-1.208 0.408-1.8s0.344-1.192 0.504-1.8c0.352-1.216 0.704-2.448 1.056-3.696s0.704-2.48 1.056-3.696 0.688-2.416 1.008-3.6c0.32-1.184 0.64-2.384 0.96-3.6 0.224-0.768 0.432-1.544 0.624-2.328s0.352-1.56 0.48-2.328l0.144-0.576c0.096001-0.32-0.031998-0.48-0.384-0.48-0.672-0.032-1.352-0.072-2.04-0.12-0.688-0.048-1.4-0.056-2.136-0.024-0.256 0-0.504-0.016-0.744-0.048s-0.488-0.08-0.744-0.144c-0.16-0.064-0.296-0.096-0.408-0.096-0.112 0-0.248-0.016-0.408-0.048s-0.296-0.064-0.408-0.096c-0.112-0.032-0.232-0.096-0.36-0.192 0.032-0.032 0.056-0.064 0.072-0.096s0.04-0.064 0.072-0.096c-0.096-0.096-0.2-0.12-0.312-0.072-0.112 0.048-0.248 0.024-0.408-0.072-0.032-0.064-0.072-0.136-0.12-0.216s-0.104-0.152-0.168-0.216c-0.064-0.16-0.112-0.288-0.144-0.384s0.015999-0.208 0.144-0.336 0.16-0.304 0.096-0.528c-0.032-0.064-0.048-0.12-0.048-0.168s-0.016-0.12-0.048-0.216c0.224-0.16 0.432-0.312 0.624-0.456s0.416-0.232 0.672-0.264c0.128-0.064 0.24-0.096 0.336-0.096 0.544-0.064 0.944-0.304 1.2-0.72 0.032-0.064 0.112-0.128 0.24-0.192-0.064-0.032-0.128-0.048-0.192-0.048s-0.112-0.032-0.144-0.096c-0.096-0.16-0.24-0.208-0.432-0.144-0.096 0.064-0.192 0.088-0.288 0.072-0.096-0.016-0.192 0.0079997-0.288 0.072-0.30533 0.0916-0.5524 0.022965-0.74119-0.20591 0.050765-0.027365 0.089829-0.054729 0.11719-0.082094 0.032-0.032 0.08-0.048 0.144-0.048 0.32 0 0.632-0.032 0.936-0.096 0.304-0.064 0.6-0.144 0.888-0.24 0.288-0.096 0.608-0.144 0.96-0.144 0.256-0.032 0.504-0.056 0.744-0.072s0.488-0.04 0.744-0.072c0.224-0.032 0.44-0.048 0.648-0.048h0.648c-0.064-0.096-0.128-0.144-0.192-0.144h-0.96c-0.256 0-0.512-0.016-0.768-0.048 0.032-0.128 0.128-0.192 0.288-0.192 0.352-0.096 0.712-0.16 1.08-0.192s0.728-0.064 1.08-0.096c0.608-0.032 1.2-0.048 1.776-0.048s1.152-0.016 1.728-0.048c0.192-0.032 0.384-0.056 0.576-0.072s0.384-0.024 0.576-0.024 0.392-0.0079999 0.6-0.024 0.424-0.024 0.648-0.024c0.256 0 0.52-0.0079999 0.792-0.024s0.536-0.04 0.792-0.072c0.576-0.064 1.168-0.064 1.776 0 0.416 0.032 0.816 0.032 1.2 0 0.128-0.032 0.304-0.048 0.528-0.048 0.992 0 1.888-0.112 2.688-0.336 0.416-0.096 0.848-0.144 1.296-0.144 0.256 0 0.504-0.016 0.744-0.048s0.488-0.048 0.744-0.048c0.192 0 0.384 0.016 0.576 0.048s0.384 0.048 0.576 0.048c0.32 0 0.656 0.095999 1.008 0.288-0.128 0.064-0.248 0.112-0.36 0.144-0.112 0.032-0.248 0.064-0.408 0.096 0.864 0.064 1.568 0.288 2.112 0.672-0.064 0.16-0.176 0.232-0.336 0.216s-0.256 0.055999-0.288 0.216c0.16 0.064 0.32 0.12 0.48 0.168s0.336 0.04 0.528-0.024c0.064 0 0.128 0.032 0.192 0.096l0.048 0.048c0 0.064-8e-3 0.112-0.024 0.144s-0.024 0.08-0.024 0.144c-0.256 0.064-0.504 0.048-0.744-0.048s-0.488-0.064001-0.744 0.096c0.096001 0.064 0.184 0.104 0.264 0.12 0.080001 0.016 0.152 0.056 0.216 0.12-0.128-0.032-0.264-0.048-0.408-0.048s-0.296 0.032-0.456 0.096c0.192 0.032 0.36 0.064 0.504 0.096s0.28-0.015999 0.408-0.144c0.032 0.032 0.096 0.048 0.192 0.048 0.064 0.16 0.128 0.224 0.192 0.192 0.064 0 0.104-0.016 0.12-0.048s0.056-0.064 0.12-0.096c0.032 0.032 0.176 0.112 0.432 0.24-0.16 0.064-0.312 0.096-0.456 0.096h-1.128c-0.064 0.032-0.144 0.096-0.24 0.192-0.032 0.128 0.031999 0.192 0.192 0.192 0.16 0.032 0.304 0.056 0.432 0.072s0.272 0.024 0.432 0.024c-0.064 0.128-0.112 0.192-0.144 0.192-0.096 0.064-0.184 0.096-0.264 0.096-0.08 0-0.184 0.016-0.312 0.048 0.064 0.256 0.112 0.464 0.144 0.624 0.096001-0.096 0.16-0.176 0.192-0.24 0.128 0.032 0.248 0.048 0.36 0.048 0.112 0 0.232 0.016 0.36 0.048-0.032 0.064-0.064 0.096-0.096 0.096s-0.08 0.016-0.144 0.048h-0.24l0.096 0.096c0.288 0 0.56 0.095999 0.816 0.288-0.032 0.224-0.12 0.4-0.264 0.528s-0.312 0.24-0.504 0.336c0-0.012091-0.002284-0.021897-0.006852-0.029419zm-24.863 26.093c0.001773 1.109e-4 0.003601 1.663e-4 0.005484 1.663e-4 -0.002825-0.0028252-0.005588-0.0056504-0.008288-0.0084756l0.002804 0.0083093zm-1.3597-29.342c-0.0086 0.0046355-0.017535 0.0092709-0.026806 0.013906v-0.048c0.008801 0.011734 0.017736 0.023099 0.026806 0.034094zm19.689-1.7261c8e-3 -8e-3 0.012-0.02 0.012-0.036h0.624c0.16 0 0.272-0.032 0.336-0.096 0.064 0 0.128-0.0079999 0.192-0.024s0.128-0.024 0.192-0.024c-0.16-0.064-0.288-0.048-0.384 0.048h-0.624c-0.032 0-0.144 0.032-0.336 0.096 0 0.016-4e-3 0.028-0.012 0.036zm-6.852 0.636c-0.256 0.032-0.496 0.04-0.72 0.024s-0.464 0.0079997-0.72 0.072c0.384 0.064 0.8 0.064 1.248 0 0.064 0 0.128-0.032 0.192-0.096 0.224-0.032 0.44-0.04 0.648-0.024s0.408-0.0079997 0.6-0.072c0-0.032 0.016-0.064 0.048-0.096-0.288 0-0.496 0.016-0.624 0.048-0.064 0-0.12-0.0079999-0.168-0.024s-0.104-0.0080002-0.168 0.024c-0.128 0.064-0.24 0.112-0.336 0.144zm3.936-0.192c-0.448-0.096-0.752-0.136-0.912-0.12s-0.32 0.056-0.48 0.12h1.392zm6.336-0.576c-0.352-0.192-0.704-0.224-1.056-0.096 0.192 0.064 0.304 0.096 0.336 0.096h0.72zm0.816 1.008c0.192-0.032 0.344-0.048 0.456-0.048 0.112 0 0.216-0.016 0.312-0.048v-0.096c-0.128-0.032-0.248-0.048-0.36-0.048-0.112 0-0.248 0.079999-0.408 0.24zm-13.008-0.192c-0.128 0.096-0.256 0.096-0.384 0h0.384zm8.016-0.48h-0.192c0 0.032 0.032 0.048 0.096 0.048 0.032 0 0.064-0.016 0.096-0.048zm-4.416 0.144l-0.048 0.048h0.048v-0.048zm13.632 32.304c0.031921-0.032 0.047881-0.07996 0.047881-0.14388v-0.048c0 0.095882-0.01596 0.15984-0.047881 0.19188zc-4e-5 3.97e-5 -7.9e-5 7.93e-5 -1.19e-4 1.189e-4 -0.064-0.032-0.144-0.056-0.24-0.072-0.096-0.016-0.144-0.072-0.144-0.168-0.064-0.256-0.184-0.472-0.36-0.648s-0.36-0.328-0.552-0.456c0-0.032 8e-3 -0.048 0.024-0.048s0.024-0.016 0.024-0.048c0 0.032-8e-3 0.048-0.024 0.048s-0.024 0.016-0.024 0.048c-0.096 0-0.16 0.016-0.192 0.048-0.064-0.128-0.08-0.208-0.048-0.24 0-0.384 0.079999-0.768 0.24-1.152 0.352-0.704 0.664-1.392 0.936-2.064s0.584-1.36 0.936-2.064c0.256-0.544 0.52-1.096 0.792-1.656s0.536-1.112 0.792-1.656c0.096001-0.16 0.168-0.304 0.216-0.432s-0.007999-0.304-0.168-0.528c0-0.032-8e-3 -0.08-0.024-0.144s8e-3 -0.128 0.072-0.192c0.064-0.224 0.136-0.448 0.216-0.672 0.080001-0.224 0.232-0.4 0.456-0.528 0.288-0.096 0.504-0.24 0.648-0.432s0.28-0.416 0.408-0.672c0.544-1.12 1.096-2.232 1.656-3.336s1.128-2.2 1.704-3.288c0.416-0.64 0.8-1.28 1.152-1.92s0.736-1.28 1.152-1.92c0.256-0.384 0.488-0.768 0.696-1.152s0.44-0.768 0.696-1.152c0.384-0.704 0.784-1.4 1.2-2.088s0.816-1.384 1.2-2.088c0.352-0.448 0.544-0.928 0.576-1.44 0.192-0.128 0.384-0.248 0.576-0.36s0.4-0.216 0.624-0.312c0.16 0.128 0.312 0.16 0.456 0.096s0.312-0.064 0.504 0c0-0.128 0.032-0.288 0.096-0.48 0.128 0.032 0.224 0.088 0.288 0.168s0.128 0.168 0.192 0.264c0.064 0.128 0.176 0.208 0.336 0.24 0.192 0.064 0.376 0.168 0.552 0.312s0.312 0.344 0.408 0.6c0.032 0.128 0.144 0.256 0.336 0.384 0.256 0.16 0.448 0.352 0.576 0.576s0.24 0.464 0.336 0.72c0.16 0.672 0.32 1.336 0.48 1.992s0.304 1.32 0.432 1.992c0.064 0.48 0.144 0.968 0.24 1.464 0.096001 0.496 0.176 0.984 0.24 1.464 0.064 0.416 0.128 0.84 0.192 1.272s0.128 0.856 0.192 1.272c0.064 0.256 0.104 0.512 0.12 0.768s0.056 0.528 0.12 0.816c0.064 0.512 0.12 1.024 0.168 1.536s0.12 1.04 0.216 1.584c0 0.032 8e-3 0.064 0.024 0.096s0.024 0.08 0.024 0.144c0.064 0.032 0.128 0.056 0.192 0.072s0.128 0.056 0.192 0.12c0.064 0.032 0.128 0.072 0.192 0.12s0.096 0.088 0.096 0.12c-0.032 0.288 0.16 0.48 0.576 0.576-0.416 0.064-0.704 0.128-0.864 0.192-0.192 0.032-0.24 0.208-0.144 0.528 0 0.032 0.048 0.096 0.144 0.192 0 0.064 0.016 0.112 0.048 0.144s0.048 0.08 0.048 0.144c0.32 0.064 0.704 0.112 1.152 0.144-0.064 0.192-0.096 0.272-0.096 0.24-0.16 0.064-0.304 0.12-0.432 0.168s-0.256 0.104-0.384 0.168-0.192 0.112-0.192 0.144c0.096001 0.16 0.2 0.224 0.312 0.192 0.112-0.032 0.216-0.016 0.312 0.048 0 0.096-0.016 0.144-0.048 0.144l-0.168 0.168c-0.048 0.048-0.088 0.104-0.12 0.168-0.064 0.064-0.136 0.104-0.216 0.12-0.08 0.016-0.152 0.04-0.216 0.072-0.032 0.16-0.016 0.272 0.048 0.336l0.192 0.192c0.16 0.224 0.144 0.352-0.048 0.384-0.096 0.064-0.192 0.104-0.288 0.12-0.096 0.016-0.224 0.056-0.384 0.12 0 0.064-0.016 0.136-0.048 0.216s-0.032 0.168 0 0.264c0.032 0.64 0.08 1.288 0.144 1.944s0.112 1.32 0.144 1.992c0.192 1.536 0.288 3.104 0.288 4.704-0.032 0.192-0.032 0.376 0 0.552s0.032 0.344 0 0.504c0 0.16-0.032 0.368-0.096 0.624-0.032 0.064-0.064 0.112-0.096 0.144s-0.032 0.08 0 0.144c0 0.352-0.112 0.752-0.336 1.2-0.064 0.064-0.104 0.144-0.12 0.24s-0.04 0.192-0.072 0.288c-0.128-0.032-0.248-0.056-0.36-0.072-0.112-0.016-0.248-0.04-0.408-0.072-0.032 0.096-0.048 0.184-0.048 0.264s-0.016 0.184-0.048 0.312c-0.128-0.032-0.304-0.048-0.528-0.048h-0.264c-0.112 0-0.216-0.016-0.312-0.048-0.448-0.064-0.784-0.208-1.008-0.432s-0.368-0.512-0.432-0.864l-0.096-0.576c-0.032-0.192-0.064-0.4-0.096-0.624-0.128-0.032-0.248-0.048-0.36-0.048-0.112 0-0.248-0.016-0.408-0.048-0.032-0.064-0.072-0.12-0.12-0.168s-0.088-0.104-0.12-0.168c-0.096-0.352-0.208-0.672-0.336-0.96-0.064-0.192-0.096-0.352-0.096-0.48-0.064-0.224-0.112-0.448-0.144-0.672s-0.064-0.464-0.096-0.72c-0.096-0.704-0.184-1.392-0.264-2.064-0.08-0.672-0.168-1.376-0.264-2.112-0.064-0.352-0.104-0.72-0.12-1.104s-0.056-0.768-0.12-1.152c0-0.224-0.095999-0.336-0.288-0.336-0.384 0.064-0.76 0.112-1.128 0.144s-0.728 0.064-1.08 0.096c-0.448 0.064-0.88 0.104-1.296 0.12s-0.848 0.04-1.296 0.072c-0.48 0.064-0.968 0.112-1.464 0.144-0.496 0.032-1 0.08-1.512 0.144-0.256 0.064-0.432 0.16-0.528 0.288-0.032 0.096-0.072 0.184-0.12 0.264s-0.072 0.152-0.072 0.216c-0.448 0.864-0.904 1.736-1.368 2.616s-0.92 1.752-1.368 2.616c-0.256 0.512-0.552 1-0.888 1.464s-0.664 0.936-0.984 1.416c-0.192 0.288-0.448 0.448-0.768 0.48-0.192 0.064-0.4 0.072-0.624 0.024s-0.432-0.168-0.624-0.36c4e-5 -3.96e-5 7.9e-5 -7.93e-5 1.19e-4 -1.189e-4zm9.7919-14.304c0.256 0.064 0.472 0.088 0.648 0.072s0.344-0.04 0.504-0.072c0.192-0.032 0.376-0.056 0.552-0.072s0.376-0.056 0.6-0.12c0.416-0.064 0.832-0.112 1.248-0.144s0.848-0.064 1.296-0.096c0.256 0 0.384-0.128 0.384-0.384-0.064-0.384-0.096-0.776-0.096-1.176s-0.016-0.792-0.048-1.176c-0.064-0.736-0.12-1.496-0.168-2.28s-0.104-1.56-0.168-2.328c0-0.128-0.016-0.256-0.048-0.384s-0.128-0.272-0.288-0.432c-0.672 1.472-1.392 2.904-2.16 4.296s-1.52 2.824-2.256 4.296zm11.616-1.104v-0.432c-0.064-0.064-0.128-0.096-0.192-0.096-0.064-0.032-0.096-0.016-0.096 0.048 0 0.064 8e-3 0.136 0.024 0.216s0.104 0.168 0.264 0.264zm-0.24-1.536c-0.192 0.064-0.192 0.224 0 0.48 0 0.064 0.048 0.112 0.144 0.144v-0.048c-0.032-0.128-0.032-0.24 0-0.336s-0.015999-0.176-0.144-0.24zm-1.104-6.576l-0.048 0.048h0.096l-0.048-0.048zm0 0.816h-0.048l0.096 0.096v-0.048l-0.048-0.048zm0.288 3.12v0.048h0.048v-0.048h-0.048zm0.864 2.112h-0.048v0.048l0.048-0.048zm-0.624 0.768h0.048l-0.048-0.096v0.096zm-2.4475-21.129c-3.47e-4 0.0029863-5.21e-4 0.0061462-5.21e-4 0.0094798 0-0.003258 1.66e-4 -0.0065159 4.98e-4 -0.0097739l2.3e-5 2.941e-4zm-2.3e-5 -2.941e-4c0.002926-0.028742 0.01876-0.057484 0.047502-0.086226l0.144-0.144c0.032-0.032 0.064-0.056 0.096-0.072s0.064-0.056 0.096-0.12l0.144-0.144c0.16 0 0.296-0.048 0.408-0.144 0.112-0.096 0.2-0.208 0.264-0.336 0.32-0.128 0.496-0.304 0.528-0.528 0.352 0 0.64 0.095999 0.864 0.288-0.096 0.224-0.224 0.416-0.384 0.576l-0.48 0.48c-0.256 0.224-0.512 0.456-0.768 0.696s-0.496 0.504-0.72 0.792c-0.224 0.256-0.456 0.496-0.696 0.72s-0.488 0.432-0.744 0.624c-0.192 0.128-0.352 0.192-0.48 0.192s-0.272-0.079999-0.432-0.24c-0.128-0.096-0.248-0.136-0.36-0.12-0.112 0.016-0.232-0.0079997-0.36-0.072-0.032-0.064-0.04-0.136-0.024-0.216s8e-3 -0.152-0.024-0.216-0.08-0.128-0.144-0.192-0.112-0.128-0.144-0.192c-0.064-0.128-0.096-0.24-0.096-0.336 0.096001-0.448 0.288-0.8 0.576-1.056 0.416-0.32 0.824-0.64 1.224-0.96s0.808-0.64 1.224-0.96c0.096001-0.096 0.192-0.176 0.288-0.24 0.096001-0.064 0.208-0.128 0.336-0.192 0.16-0.064 0.304-0.136 0.432-0.216s0.288-0.104 0.48-0.072c0.064 0 0.128-0.016 0.192-0.048l0.192-0.096c0.192-0.064 0.32-0.096 0.384-0.096 0.192 0 0.256 0.079999 0.192 0.24-0.192 0.288-0.368 0.592-0.528 0.912-0.32 0.032-0.496 0.208-0.528 0.528-0.16 0-0.288 0.048-0.384 0.144-0.096 0.096-0.192 0.208-0.288 0.336-0.064 0.064-0.112 0.128-0.144 0.192-0.064 0.064-0.128 0.112-0.192 0.144-0.064 0.064-0.112 0.128-0.144 0.192-0.028666 0-0.044493 0.01284-0.047479 0.03852l-2.3e-5 -2.941e-4zm38.784 40.57c-0.064-0.064-0.096-0.16-0.096-0.288 0.064-0.256 0.12-0.504 0.168-0.744s0.104-0.488 0.168-0.744c0.288-1.12 0.544-2.232 0.768-3.336s0.448-2.216 0.672-3.336c0.064-0.448 0.136-0.872 0.216-1.272 0.080001-0.4 0.168-0.824 0.264-1.272l0.288-1.728c0.096001-0.576 0.208-1.136 0.336-1.68 0.16-0.736 0.304-1.464 0.432-2.184s0.272-1.448 0.432-2.184c0.224-0.96 0.432-1.928 0.624-2.904s0.4-1.944 0.624-2.904c0.096001-0.384 0.184-0.776 0.264-1.176 0.080001-0.4 0.168-0.792 0.264-1.176 0.032-0.064 0.048-0.144 0.048-0.24 0-0.064-0.032-0.128-0.096-0.192-0.032 0-0.048 0.0079999-0.048 0.024s-0.016 0.024-0.048 0.024h-0.048c-0.256 0.448-0.432 0.848-0.528 1.2-0.16 0.736-0.328 1.472-0.504 2.208s-0.344 1.472-0.504 2.208c-0.256 1.056-0.496 2.112-0.72 3.168l-0.672 3.168c-0.192 0.864-0.368 1.736-0.528 2.616s-0.32 1.752-0.48 2.616c-0.128 0.672-0.248 1.336-0.36 1.992-0.112 0.656-0.232 1.32-0.36 1.992l-0.72 3.312c-0.16 0.64-0.304 1.272-0.432 1.896s-0.272 1.256-0.432 1.896c-0.064 0.192-0.12 0.384-0.168 0.576s-0.088 0.4-0.12 0.624c-0.096 0.416-0.352 0.624-0.768 0.624 0-0.064-8e-3 -0.128-0.024-0.192s-0.024-0.128-0.024-0.192c-0.032-0.544-0.04-1.064-0.024-1.56s0.072-1.016 0.168-1.56v-0.096c0-0.768 0.071999-1.536 0.216-2.304s0.28-1.52 0.408-2.256l0.864-5.184 0.384-2.016c0.128-0.672 0.256-1.328 0.384-1.968 0.192-1.216 0.416-2.416 0.672-3.6l0.768-3.552c0.064-0.16 0.088-0.336 0.072-0.528s-0.024-0.368-0.024-0.528c0.032 0 0.048-0.016 0.048-0.048l-0.048 0.048c-0.16 0.096-0.288 0.224-0.384 0.384-0.096 0.16-0.208 0.32-0.336 0.48-0.448 0.544-0.88 1.096-1.296 1.656s-0.832 1.112-1.248 1.656c-0.256 0.32-0.48 0.64-0.672 0.96s-0.416 0.64-0.672 0.96c-0.16 0.256-0.336 0.52-0.528 0.792s-0.384 0.536-0.576 0.792c-0.064 0.096-0.136 0.176-0.216 0.24-0.08 0.064-0.152 0.128-0.216 0.192v-0.288c0-0.0023813 8.9e-5 -0.004674 2.66e-4 -0.0068782-2.04e-4 0.0028909-2.66e-4 0.0048845-2.66e-4 0.0068782-0.224-0.032-0.336 0.063999-0.336 0.288h-0.168 0.024l-0.336 0.336c-0.064-0.064-0.128-0.064-0.192 0h-0.144c-0.032-0.032-0.048-0.064-0.048-0.096s-0.016-0.064-0.048-0.096c-0.032 0-0.048 0.0079999-0.048 0.024s-0.016 0.024-0.048 0.024v0.048c0.032 0.032 0.064 0.048 0.096 0.048s0.064 0.016 0.096 0.048c-0.064 0.096-0.12 0.192-0.168 0.288s-0.104 0.192-0.168 0.288c-0.064 0.16-0.128 0.24-0.192 0.24s-0.176-0.079999-0.336-0.24c-0.064-0.064-0.128-0.112-0.192-0.144v0.336c-0.064 0.064-0.12 0.08-0.168 0.048s-0.104-0.048-0.168-0.048-0.128 0.0079999-0.192 0.024-0.128 0.0080002-0.192-0.024c-0.16-0.064-0.312-0.12-0.456-0.168s-0.28-0.136-0.408-0.264c-0.352-0.352-0.664-0.728-0.936-1.128s-0.504-0.824-0.696-1.272c-0.16-0.416-0.312-0.832-0.456-1.248s-0.296-0.832-0.456-1.248l-0.384-0.864c-0.128-0.288-0.272-0.56-0.432-0.816-0.096-0.096-0.176-0.16-0.24-0.192-0.16 0.16-0.24 0.384-0.24 0.672-0.032 0.512-0.095999 1.008-0.192 1.488-0.096 0.48-0.176 0.96-0.24 1.44-0.16 0.8-0.312 1.6-0.456 2.4s-0.296 1.616-0.456 2.448c-0.192 1.152-0.392 2.304-0.6 3.456s-0.424 2.304-0.648 3.456c-0.064 0.352-0.128 0.712-0.192 1.08s-0.128 0.728-0.192 1.08c-0.064 0.224-0.136 0.432-0.216 0.624-0.08 0.192-0.232 0.368-0.456 0.528-0.064-0.128-0.088-0.248-0.072-0.36s8e-3 -0.232-0.024-0.36c0.128-0.064 0.2-0.16 0.216-0.288s0.04-0.272 0.072-0.432c0.16-0.768 0.296-1.536 0.408-2.304 0.112-0.768 0.248-1.536 0.408-2.304 0.128-0.768 0.264-1.544 0.408-2.328s0.296-1.56 0.456-2.328c0.064-0.256 0.112-0.488 0.144-0.696 0.030378-0.19745 0.031918-0.41653 0.004621-0.65724l0.091379-0.18276c0.032-0.064 0.048-0.128 0.048-0.192 0.064-0.288 0.136-0.584 0.216-0.888 0.080001-0.304 0.152-0.6 0.216-0.888l0.864-4.464c0.064-0.16 0.104-0.336 0.12-0.528s-0.055999-0.368-0.216-0.528c-0.064-0.064-0.096-0.144-0.096-0.24s-0.016-0.176-0.048-0.24c0-0.064-0.016-0.104-0.048-0.12s-0.064-0.056-0.096-0.12c-0.096 0.064-0.152 0.12-0.168 0.168s-0.04 0.104-0.072 0.168c-0.192 1.024-0.384 2.024-0.576 3s-0.384 1.976-0.576 3c-0.16 0.864-0.336 1.736-0.528 2.616s-0.368 1.768-0.528 2.664c-0.192 1.024-0.376 2.024-0.552 3s-0.36 1.976-0.552 3c-0.064 0.448-0.136 0.896-0.216 1.344-0.08 0.448-0.168 0.896-0.264 1.344-0.032 0.224-0.16 0.416-0.384 0.576-0.032 0-0.056-0.0079999-0.072-0.024s-0.04-0.024-0.072-0.024l-0.432 0.432c-0.064-0.128-0.096-0.176-0.096-0.144-0.032-0.16-0.048-0.4-0.048-0.72 0.128-0.128 0.192-0.248 0.192-0.36s-0.032-0.248-0.096-0.408c-0.064 0.16-0.096 0.296-0.096 0.408v0.36c-0.032 0.064-0.064 0.12-0.096 0.168s-0.08 0.104-0.144 0.168c-0.192 0.096-0.384 0.032001-0.576-0.192-0.064 0.16-0.136 0.288-0.216 0.384-0.08 0.096-0.152 0.208-0.216 0.336-0.096-0.096-0.16-0.176-0.192-0.24l0.096-0.096c-0.032-0.032-0.048-0.064-0.048-0.096l-0.048 0.048v0.144h-0.36c-0.112 0-0.232-0.063999-0.36-0.192v-0.336c0-0.064 8e-3 -0.12 0.024-0.168s-8e-3 -0.104-0.072-0.168c-0.064 0.064-0.128 0.12-0.192 0.168s-0.128 0.104-0.192 0.168c-0.128-0.064-0.232-0.144-0.312-0.24-0.08-0.096-0.152-0.192-0.216-0.288-0.224-0.32-0.384-0.648-0.48-0.984-0.096-0.336-0.112-0.696-0.048-1.08 0.096001-0.416 0.168-0.824 0.216-1.224s0.104-0.824 0.168-1.272c0.032-0.096 0.048-0.208 0.048-0.336v-0.384c0.064-0.16 0.096-0.264 0.096-0.312s-0.032-0.168-0.096-0.36v0.672c-0.192 0-0.336-0.016-0.432-0.048l0.144-1.008c0.16-0.992 0.32-1.976 0.48-2.952s0.336-1.96 0.528-2.952c0.128-0.704 0.272-1.408 0.432-2.112s0.32-1.424 0.48-2.16c0.256-1.024 0.496-2.048 0.72-3.072s0.464-2.048 0.72-3.072c0.064-0.224 0.144-0.448 0.24-0.672 0.096001-0.224 0.176-0.448 0.24-0.672 0.128-0.352 0.24-0.768 0.336-1.248 0.064-0.192 0.112-0.376 0.144-0.552s0.08-0.36 0.144-0.552c0.064-0.512 0.176-1 0.336-1.464s0.336-0.936 0.528-1.416c0.128-0.352 0.304-0.608 0.528-0.768-0.064-0.256-0.112-0.464-0.144-0.624 0.032-0.032 0.112-0.08 0.24-0.144 0.096001-0.096 0.144-0.176 0.144-0.24 0-0.128-0.032-0.32-0.096-0.576-0.064-0.192 0.015999-0.32 0.24-0.384 0.16-0.032 0.288-0.096 0.384-0.192 0.096001-0.096 0.176-0.208 0.24-0.336 0.128-0.032 0.24-0.048 0.336-0.048 0.096001 0 0.176-0.016 0.24-0.048 0.16-0.064 0.312-0.088 0.456-0.072s0.296 0.104 0.456 0.264c0.064 0.064 0.144 0.112 0.24 0.144 0.096001 0.032 0.192 0.08 0.288 0.144 0.288 0.096 0.512 0.272 0.672 0.528 0.064 0.128 0.128 0.248 0.192 0.36s0.128 0.232 0.192 0.36c0.256 0.608 0.496 1.216 0.72 1.824s0.432 1.216 0.624 1.824c0.128 0.448 0.248 0.88 0.36 1.296 0.112 0.416 0.28 0.832 0.504 1.248 0.064 0.128 0.112 0.208 0.144 0.24 0.16 0 0.208-0.079999 0.144-0.24-0.032-0.256-0.112-0.56-0.24-0.912-0.064-0.192-0.12-0.376-0.168-0.552s-0.072-0.36-0.072-0.552c0.064 0.096 0.112 0.184 0.144 0.264s0.064 0.152 0.096 0.216c0.064 0.16 0.112 0.312 0.144 0.456s0.08 0.296 0.144 0.456c0.16-0.224 0.2-0.416 0.12-0.576-0.08-0.16-0.136-0.32-0.168-0.48 0.128 0.032 0.224 0.144 0.288 0.336 0.16 0.448 0.32 0.912 0.48 1.392s0.32 0.944 0.48 1.392l0.768 1.92c0.128 0.224 0.272 0.384 0.432 0.48 0.16 0.256 0.296 0.52 0.408 0.792 0.112 0.272 0.216 0.536 0.312 0.792l0.192 0.48c0.064 0.16 0.176 0.32 0.336 0.48 0.064-0.096 0.192-0.24 0.384-0.432 0.672-0.928 1.352-1.872 2.04-2.832 0.688-0.96 1.384-1.92 2.088-2.88 0.32-0.448 0.64-0.912 0.96-1.392 0.32-0.48 0.656-0.944 1.008-1.392 0.672-0.896 1.328-1.8 1.968-2.712s1.328-1.8 2.064-2.664c0.128-0.128 0.24-0.256 0.336-0.384 0.096001-0.128 0.192-0.272 0.288-0.432 0.192-0.256 0.384-0.384 0.576-0.384 0.224-0.032 0.424-0.096 0.6-0.192s0.344-0.208 0.504-0.336c0.16-0.16 0.336-0.288 0.528-0.384s0.368-0.208 0.528-0.336c0.768 0.064 1.376 0.384 1.824 0.96 0.064 0.064 0.128 0.144 0.192 0.24l0.192 0.288c0.16 0.32 0.264 0.656 0.312 1.008s0.072 0.704 0.072 1.056c-0.064 1.152-0.208 2.272-0.432 3.36-0.256 1.056-0.504 2.12-0.744 3.192s-0.488 2.136-0.744 3.192-0.504 2.12-0.744 3.192-0.472 2.136-0.696 3.192c-0.224 1.024-0.432 2.048-0.624 3.072l-0.576 3.072c-0.32 1.632-0.648 3.232-0.984 4.8s-0.712 3.152-1.128 4.752c-0.16 0.64-0.328 1.28-0.504 1.92s-0.344 1.28-0.504 1.92c-0.192 0.768-0.544 1.488-1.056 2.16-0.128 0.16-0.264 0.296-0.408 0.408s-0.264 0.248-0.36 0.408c-0.064 0.096-0.192 0.144-0.384 0.144-0.064 0.032-0.144 0.04-0.24 0.024-0.096-0.016-0.192 0.0079997-0.288 0.072v-0.144c-0.064 0-0.096-0.016-0.096-0.048l-0.048 0.048v0.144c-0.064 0.064-0.128 0.144-0.192 0.24l-0.192 0.288c-0.16-0.288-0.208-0.512-0.144-0.672 0.032-0.064 0.048-0.192 0.048-0.384 0-0.32-0.176-0.432-0.528-0.336-0.032 0-0.056 0.0079999-0.072 0.024s-0.04 0.024-0.072 0.024c-0.032-0.224 0-0.424 0.096-0.6 0.096001-0.176 0.208-0.344 0.336-0.504 0.096001-0.192 0.112-0.368 0.048-0.528-0.064-0.064-0.088-0.136-0.072-0.216s0.024-0.168 0.024-0.264h-0.72c0.032-0.064 0.056-0.128 0.072-0.192s0.04-0.128 0.072-0.192c0.224-0.48 0.352-0.928 0.384-1.344 0-0.064 0.032-0.128 0.096-0.192zm-13.627-14.121l-0.004621 0.0092421v-0.048c0.001623 0.012981 0.003163 0.0259 0.004621 0.038758zm5.4727-10.828c-0.003555-0.017778-0.005333-0.037333-0.005333-0.058666-0.032 0-0.048-0.016-0.048-0.048l0.053333 0.10667zm0.042667 0.085334v0.144l0.048 0.048c0.032-0.032 0.048-0.064 0.048-0.096l-0.096-0.096zm-0.336-0.816c0 0.064 0.016 0.112 0.048 0.144l0.048 0.048v-0.048c-0.032-0.032-0.048-0.056-0.048-0.072s-0.016-0.04-0.048-0.072-0.048-0.056-0.048-0.072-0.016-0.04-0.048-0.072v0.048l0.096 0.096zm-3.1625-7.7817c-0.001708 0.0018254-0.003533 0.0037099-0.005477 0.0056534 0-0.0029152-6.6e-5 -0.0057641-1.99e-4 -0.0085465l0.005676 0.0028931zm-5.4295 27.606c-0.096 0.192-0.144 0.312-0.144 0.36s0.048 0.152 0.144 0.312v-0.672c0.064-0.16 0.096-0.256 0.096-0.288s-0.032-0.112-0.096-0.24v0.528zm-0.336 2.112h-0.144v0.384c0 0.064 0.016 0.112 0.048 0.144 0-0.032 0.016-0.048 0.048-0.048l0.048-0.048v-0.432zm-0.048-1.056c0.064 0.128 0.08 0.24 0.048 0.336s0.015999 0.176 0.144 0.24c-0.032-0.096-0.032-0.184 0-0.264s-0.031999-0.184-0.192-0.312zm2.064-25.872c-0.096-0.16-0.096-0.336 0-0.528 0.128 0.192 0.128 0.368 0 0.528zm-0.072 0.96c0-0.064-0.024-0.128-0.072-0.192-0.048 0.064-0.072 0.128-0.072 0.192h0.144zm6.744 3.216c-0.032 0.032-0.048 0.064-0.048 0.096s8e-3 0.056 0.024 0.072 0.024 0.04 0.024 0.072c0.064-0.064 0.112-0.128 0.144-0.192h-0.048l-0.096-0.048zm-6.576-5.136c-0.032-0.064-0.04-0.128-0.024-0.192s-0.023999-0.144-0.12-0.24c0.032 0.096 0.04 0.176 0.024 0.24s0.024 0.128 0.12 0.192zm4.464 0.576l-0.048 0.048 0.048 0.048 0.048-0.048-0.048-0.048zm-4.896 2.64v0.048l0.048-0.048h-0.048zm7.824 4.176l-0.048 0.048h0.048v-0.048zm20.304 21.504c0.031921-0.032 0.047881-0.07996 0.047881-0.14388v-0.048c0 0.095882-0.01596 0.15984-0.047881 0.19188zc-4e-5 3.97e-5 -7.9e-5 7.93e-5 -1.19e-4 1.189e-4 -0.064-0.032-0.144-0.056-0.24-0.072-0.096-0.016-0.144-0.072-0.144-0.168-0.064-0.256-0.184-0.472-0.36-0.648s-0.36-0.328-0.552-0.456c0-0.032 8e-3 -0.048 0.024-0.048s0.024-0.016 0.024-0.048c0 0.032-8e-3 0.048-0.024 0.048s-0.024 0.016-0.024 0.048c-0.096 0-0.16 0.016-0.192 0.048-0.064-0.128-0.08-0.208-0.048-0.24 0-0.384 0.079999-0.768 0.24-1.152 0.352-0.704 0.664-1.392 0.936-2.064s0.584-1.36 0.936-2.064c0.256-0.544 0.52-1.096 0.792-1.656s0.536-1.112 0.792-1.656c0.096001-0.16 0.168-0.304 0.216-0.432s-0.007999-0.304-0.168-0.528c0-0.032-8e-3 -0.08-0.024-0.144s8e-3 -0.128 0.072-0.192c0.064-0.224 0.136-0.448 0.216-0.672 0.080001-0.224 0.232-0.4 0.456-0.528 0.288-0.096 0.504-0.24 0.648-0.432s0.28-0.416 0.408-0.672c0.544-1.12 1.096-2.232 1.656-3.336s1.128-2.2 1.704-3.288c0.416-0.64 0.8-1.28 1.152-1.92s0.736-1.28 1.152-1.92c0.256-0.384 0.488-0.768 0.696-1.152s0.44-0.768 0.696-1.152c0.384-0.704 0.784-1.4 1.2-2.088s0.816-1.384 1.2-2.088c0.352-0.448 0.544-0.928 0.576-1.44 0.192-0.128 0.384-0.248 0.576-0.36s0.4-0.216 0.624-0.312c0.16 0.128 0.312 0.16 0.456 0.096s0.312-0.064 0.504 0c0-0.128 0.032-0.288 0.096-0.48 0.128 0.032 0.224 0.088 0.288 0.168s0.128 0.168 0.192 0.264c0.064 0.128 0.176 0.208 0.336 0.24 0.192 0.064 0.376 0.168 0.552 0.312s0.312 0.344 0.408 0.6c0.032 0.128 0.144 0.256 0.336 0.384 0.256 0.16 0.448 0.352 0.576 0.576s0.24 0.464 0.336 0.72c0.16 0.672 0.32 1.336 0.48 1.992s0.304 1.32 0.432 1.992c0.064 0.48 0.144 0.968 0.24 1.464 0.096001 0.496 0.176 0.984 0.24 1.464 0.064 0.416 0.128 0.84 0.192 1.272s0.128 0.856 0.192 1.272c0.064 0.256 0.104 0.512 0.12 0.768s0.056 0.528 0.12 0.816c0.064 0.512 0.12 1.024 0.168 1.536s0.12 1.04 0.216 1.584c0 0.032 8e-3 0.064 0.024 0.096s0.024 0.08 0.024 0.144c0.064 0.032 0.128 0.056 0.192 0.072s0.128 0.056 0.192 0.12c0.064 0.032 0.128 0.072 0.192 0.12s0.096 0.088 0.096 0.12c-0.032 0.288 0.16 0.48 0.576 0.576-0.416 0.064-0.704 0.128-0.864 0.192-0.192 0.032-0.24 0.208-0.144 0.528 0 0.032 0.048 0.096 0.144 0.192 0 0.064 0.016 0.112 0.048 0.144s0.048 0.08 0.048 0.144c0.32 0.064 0.704 0.112 1.152 0.144-0.064 0.192-0.096 0.272-0.096 0.24-0.16 0.064-0.304 0.12-0.432 0.168s-0.256 0.104-0.384 0.168-0.192 0.112-0.192 0.144c0.096001 0.16 0.2 0.224 0.312 0.192 0.112-0.032 0.216-0.016 0.312 0.048 0 0.096-0.016 0.144-0.048 0.144l-0.168 0.168c-0.048 0.048-0.088 0.104-0.12 0.168-0.064 0.064-0.136 0.104-0.216 0.12-0.08 0.016-0.152 0.04-0.216 0.072-0.032 0.16-0.016 0.272 0.048 0.336l0.192 0.192c0.16 0.224 0.144 0.352-0.048 0.384-0.096 0.064-0.192 0.104-0.288 0.12-0.096 0.016-0.224 0.056-0.384 0.12 0 0.064-0.016 0.136-0.048 0.216s-0.032 0.168 0 0.264c0.032 0.64 0.08 1.288 0.144 1.944s0.112 1.32 0.144 1.992c0.192 1.536 0.288 3.104 0.288 4.704-0.032 0.192-0.032 0.376 0 0.552s0.032 0.344 0 0.504c0 0.16-0.032 0.368-0.096 0.624-0.032 0.064-0.064 0.112-0.096 0.144s-0.032 0.08 0 0.144c0 0.352-0.112 0.752-0.336 1.2-0.064 0.064-0.104 0.144-0.12 0.24s-0.04 0.192-0.072 0.288c-0.128-0.032-0.248-0.056-0.36-0.072-0.112-0.016-0.248-0.04-0.408-0.072-0.032 0.096-0.048 0.184-0.048 0.264s-0.016 0.184-0.048 0.312c-0.128-0.032-0.304-0.048-0.528-0.048h-0.264c-0.112 0-0.216-0.016-0.312-0.048-0.448-0.064-0.784-0.208-1.008-0.432s-0.368-0.512-0.432-0.864l-0.096-0.576c-0.032-0.192-0.064-0.4-0.096-0.624-0.128-0.032-0.248-0.048-0.36-0.048-0.112 0-0.248-0.016-0.408-0.048-0.032-0.064-0.072-0.12-0.12-0.168s-0.088-0.104-0.12-0.168c-0.096-0.352-0.208-0.672-0.336-0.96-0.064-0.192-0.096-0.352-0.096-0.48-0.064-0.224-0.112-0.448-0.144-0.672s-0.064-0.464-0.096-0.72c-0.096-0.704-0.184-1.392-0.264-2.064-0.08-0.672-0.168-1.376-0.264-2.112-0.064-0.352-0.104-0.72-0.12-1.104s-0.056-0.768-0.12-1.152c0-0.224-0.095999-0.336-0.288-0.336-0.384 0.064-0.76 0.112-1.128 0.144s-0.728 0.064-1.08 0.096c-0.448 0.064-0.88 0.104-1.296 0.12s-0.848 0.04-1.296 0.072c-0.48 0.064-0.968 0.112-1.464 0.144-0.496 0.032-1 0.08-1.512 0.144-0.256 0.064-0.432 0.16-0.528 0.288-0.032 0.096-0.072 0.184-0.12 0.264s-0.072 0.152-0.072 0.216c-0.448 0.864-0.904 1.736-1.368 2.616s-0.92 1.752-1.368 2.616c-0.256 0.512-0.552 1-0.888 1.464s-0.664 0.936-0.984 1.416c-0.192 0.288-0.448 0.448-0.768 0.48-0.192 0.064-0.4 0.072-0.624 0.024s-0.432-0.168-0.624-0.36c4e-5 -3.96e-5 7.9e-5 -7.93e-5 1.19e-4 -1.189e-4zm9.7919-14.304c0.256 0.064 0.472 0.088 0.648 0.072s0.344-0.04 0.504-0.072c0.192-0.032 0.376-0.056 0.552-0.072s0.376-0.056 0.6-0.12c0.416-0.064 0.832-0.112 1.248-0.144s0.848-0.064 1.296-0.096c0.256 0 0.384-0.128 0.384-0.384-0.064-0.384-0.096-0.776-0.096-1.176s-0.016-0.792-0.048-1.176c-0.064-0.736-0.12-1.496-0.168-2.28s-0.104-1.56-0.168-2.328c0-0.128-0.016-0.256-0.048-0.384s-0.128-0.272-0.288-0.432c-0.672 1.472-1.392 2.904-2.16 4.296s-1.52 2.824-2.256 4.296zm11.616-1.104v-0.432c-0.064-0.064-0.128-0.096-0.192-0.096-0.064-0.032-0.096-0.016-0.096 0.048 0 0.064 8e-3 0.136 0.024 0.216s0.104 0.168 0.264 0.264zm-0.24-1.536c-0.192 0.064-0.192 0.224 0 0.48 0 0.064 0.048 0.112 0.144 0.144v-0.048c-0.032-0.128-0.032-0.24 0-0.336s-0.015999-0.176-0.144-0.24zm-1.104-6.576l-0.048 0.048h0.096l-0.048-0.048zm0 0.816h-0.048l0.096 0.096v-0.048l-0.048-0.048zm0.288 3.12v0.048h0.048v-0.048h-0.048zm0.864 2.112h-0.048v0.048l0.048-0.048zm-0.624 0.768h0.048l-0.048-0.096v0.096zm14.016-4.512c-0.128 0.064-0.184 0.152-0.168 0.264s0.024 0.232 0.024 0.36c-0.128 0.096-0.184 0.2-0.168 0.312 0.01286 0.090022 0.020552 0.18521 0.023076 0.28557 0.096616-0.061075 0.14492-0.14026 0.14492-0.23757v-0.36c0.096001-0.096 0.144-0.2 0.144-0.312v-0.312zm-0.33508 1.3224c-0.096616 0.061075-0.14492 0.14026-0.14492 0.23757v0.36c-0.128 0.096-0.184 0.2-0.168 0.312 0.014031 0.098214 0.021909 0.20258 0.023636 0.3131 1.21e-4 -3.657e-4 2.43e-4 -7.308e-4 3.64e-4 -0.0010951 0.096001-0.064 0.144-0.152 0.144-0.264v-0.36c0.128-0.096 0.184-0.2 0.168-0.312-0.01286-0.090022-0.020552-0.18521-0.023076-0.28557zm-0.39782 1.47c-0.005295 0.061187 0.015003 0.12237 0.060893 0.18356 0-0.077855 0.002631-0.14782 0.007892-0.20989l-0.068785 0.026327zm0.74707-2.8683c0.027275-0.052536 0.054549-0.099259 0.081824-0.14017 0.032-0.048 0.064-0.104 0.096-0.168 0.32-1.28 0.768-2.608 1.344-3.984s1.008-2.88 1.296-4.512c0 0.032 0.032-0.047999 0.096-0.24 0.064 0.32 0.096 0.576 0.096 0.768-0.064 0.64-0.136 1.264-0.216 1.872-0.08 0.608-0.152 1.2-0.216 1.776-0.128 0.64-0.36 1.192-0.696 1.656s-0.568 0.968-0.696 1.512c-0.352 1.536-0.704 3.04-1.056 4.512s-0.704 2.976-1.056 4.512c-0.384 1.632-0.784 3.248-1.2 4.848s-0.864 3.216-1.344 4.848c-0.128 0.416-0.256 0.824-0.384 1.224s-0.272 0.808-0.432 1.224c-0.032 0.064-0.048 0.128-0.048 0.192s-0.016 0.128-0.048 0.192c-0.064 0.288 0.031999 0.4 0.288 0.336 0.32-0.064 0.64-0.136 0.96-0.216 0.32-0.08 0.64-0.152 0.96-0.216 0.576-0.096 1.152-0.2 1.728-0.312s1.168-0.216 1.776-0.312c0.192-0.064 0.392-0.096 0.6-0.096s0.424-0.016 0.648-0.048c0.096001 0.128 0.224 0.16 0.384 0.096 0.32 0 0.64-0.0079999 0.96-0.024 0.32-0.016 0.64-0.04 0.96-0.072h0.48c0.544-0.16 1.096-0.216 1.656-0.168s1.112 0.12 1.656 0.216c0.064 0 0.16 0.032 0.288 0.096 0.256 0.096 0.488 0.2 0.696 0.312s0.44 0.232 0.696 0.36c0.16 0.064 0.296 0.16 0.408 0.288 0.112 0.128 0.216 0.272 0.312 0.432 0 0.032-8e-3 0.056-0.024 0.072s-0.024 0.04-0.024 0.072c-0.128 0.192-0.192 0.32-0.192 0.384s0.079999 0.176 0.24 0.336l0.048 0.048c0.16 0.16 0.28 0.296 0.36 0.408 0.080001 0.112 0.144 0.216 0.192 0.312s0.088 0.208 0.12 0.336 0.064 0.304 0.096 0.528c-0.064 0.16-0.136 0.328-0.216 0.504-0.08 0.176-0.152 0.344-0.216 0.504-0.064-0.032-0.136-0.048-0.216-0.048-0.08 0-0.168-0.016-0.264-0.048-0.064 0.128-0.08 0.272-0.048 0.432-0.064 0.064-0.112 0.096-0.144 0.096-0.128-0.064-0.256-0.08-0.384-0.048-0.128 0.064-0.352 0.128-0.672 0.192-0.128 0.032-0.256 0.048-0.384 0.048s-0.24-0.048-0.336-0.144c-0.096-0.096-0.176-0.104-0.24-0.024s-0.128 0.12-0.192 0.12c-0.192-0.064-0.376-0.152-0.552-0.264s-0.344-0.248-0.504-0.408c-0.352-0.416-0.848-0.544-1.488-0.384-0.96 0.32-1.928 0.592-2.904 0.816s-1.96 0.448-2.952 0.672c-0.864 0.192-1.72 0.384-2.568 0.576s-1.688 0.368-2.52 0.528c-0.224 0.064-0.448 0.104-0.672 0.12s-0.448 0.056-0.672 0.12c-0.256 0.032-0.488 0.064-0.696 0.096s-0.44 0.064-0.696 0.096c-0.224 0.032-0.44 0.064-0.648 0.096s-0.44 5e-7 -0.696-0.096c-0.288 0.064-0.576 0.112-0.864 0.144-0.288 0.032-0.592 0.08-0.912 0.144-0.416 0.064-0.784 0.032001-1.104-0.096-0.448-0.256-0.72-0.64-0.816-1.152-0.032-0.704 0.224-1.328 0.768-1.872 0.032-0.032 0.064-0.056 0.096-0.072s0.064-0.04 0.096-0.072c0.16-0.096 0.312-0.184 0.456-0.264s0.248-0.184 0.312-0.312c0.096001-0.128 0.144-0.28 0.144-0.456s0.032-0.344 0.096-0.504c0.16-0.48 0.304-0.968 0.432-1.464s0.272-0.984 0.432-1.464c0.352-1.088 0.68-2.176 0.984-3.264 0.304-1.088 0.6-2.176 0.888-3.264 0.192-0.64 0.376-1.28 0.552-1.92s0.344-1.28 0.504-1.92c0.16-0.544 0.296-1.072 0.408-1.584 0.112-0.512 0.232-1.04 0.36-1.584l0.192-0.672c0.064-0.224 0.128-0.464 0.192-0.72 0.096001-0.224 0.168-0.44 0.216-0.648s0.104-0.424 0.168-0.648c0.064-0.448 0.176-0.816 0.336-1.104 0.096001-0.128 0.152-0.264 0.168-0.408s0.056-0.296 0.12-0.456c0.16-0.352 0.288-0.72 0.384-1.104 0.096001-0.384 0.176-0.752 0.24-1.104 0.192-0.736 0.376-1.456 0.552-2.16s0.36-1.504 0.552-2.4c0.16-0.704 0.32-1.392 0.48-2.064s0.32-1.36 0.48-2.064c0.064-0.32 0.136-0.616 0.216-0.888 0.080001-0.272 0.2-0.536 0.36-0.792 0.064-0.064 0.104-0.152 0.12-0.264s0.04-0.216 0.072-0.312c0.064 0.064 0.12 0.128 0.168 0.192s0.088 0.128 0.12 0.192c0.064 0.064 0.128 0.064 0.192 0 0.032-0.064 0.072-0.104 0.12-0.12s0.104-0.056 0.168-0.12c0.032 0.064 0.048 0.16 0.048 0.288 0.032 0.032 0.048 0.056 0.048 0.072s0.032 0.04 0.096 0.072c0.224 0.096 0.528 0.144 0.912 0.144 0.096001 0.16 0.104 0.296 0.024 0.408-0.08 0.112-0.104 0.232-0.072 0.36 0 0.064 0.032 0.096 0.096 0.096h0.048c0.064 0 0.096-0.016 0.096-0.048 0.064-0.224 0.128-0.432 0.192-0.624s0.128-0.4 0.192-0.624c0.096001-0.032 0.192-0.048 0.288-0.048 0.096001 0 0.208-0.016 0.336-0.048 0.032 0.064 0.056 0.096 0.072 0.096s0.024 0.032 0.024 0.096c-0.064 0.256-0.096 0.448-0.096 0.576 0 0.064 0.016 0.104 0.048 0.12s0.08 0.056 0.144 0.12l0.336 0.336c0.096001 0.096 0.192 0.208 0.288 0.336-0.16 0.736-0.304 1.472-0.432 2.208s-0.24 1.488-0.336 2.256c-0.032 0.128-0.064 0.248-0.096 0.36s-0.08 0.248-0.144 0.408c-0.16 0.48-0.368 0.896-0.624 1.248s-0.416 0.736-0.48 1.152l-0.384 1.728c-0.032 0.128-0.048 0.256-0.048 0.384 0 0.10745-0.011275 0.22617-0.033824 0.35617zm11.17 22.108v0.048h0.048v-0.048h-0.048zm-12.972-14.892c8e-3 -8e-3 0.012-0.02 0.012-0.036 0.16-0.16 0.192-0.32 0.096-0.48-0.064 0.064-0.088 0.144-0.072 0.24s8e-3 0.176-0.024 0.24c0 0.016-4e-3 0.028-0.012 0.036zm12.012 13.452l-0.048-0.048 0.048 0.048c0.064 0.192 0.144 0.32 0.24 0.384 0 0.032 0.016 0.048 0.048 0.048s0.048-0.016 0.048-0.048c0.032 0 0.048-0.048 0.048-0.144-0.064-0.16-0.192-0.24-0.384-0.24zm-11.424-15.696c0-0.032 8e-3 -0.056 0.024-0.072s0.024-0.04 0.024-0.072l-0.096-0.096v0.048c0 0.064 0.016 0.128 0.048 0.192zm-0.288 1.2c0-0.064-0.016-0.112-0.048-0.144 0 0.032-8e-3 0.056-0.024 0.072s-0.024 0.04-0.024 0.072c0.032 0.032 0.048 0.064 0.048 0.096 0.032-0.032 0.048-0.064 0.048-0.096zm0.576-2.496c0.064-0.064 0.096-0.112 0.096-0.144l-0.096-0.096v0.24zm-0.48 1.92h0.048v-0.048l-0.048 0.048zm-0.48 2.064v0.048l0.048-0.048h-0.048zm0.816-3.36c0.032 0 0.048-0.016 0.048-0.048h-0.048l-0.048 0.048h0.048z"/>
<path d="m133.21 67.593h-3.2061v-1.1621h7.7861v1.1621h-3.1924v9.0439h-1.3877v-9.0439zm6.2344-1.5928h1.2578v4.1289c0.46029-0.88868 1.2145-1.333 2.2627-1.333 0.62891 0 1.1108 0.14583 1.4458 0.4375 0.33496 0.29167 0.56624 0.6722 0.69385 1.1416s0.19141 0.97526 0.19141 1.5176v4.7441h-1.2646v-4.7441c0-0.68815-0.12077-1.194-0.3623-1.5176s-0.61751-0.48535-1.1279-0.48535c-0.47396 0-0.84424 0.11735-1.1108 0.35205-0.2666 0.2347-0.45459 0.53662-0.56396 0.90576-0.10938 0.36914-0.16406 0.75651-0.16406 1.1621v4.3271h-1.2578v-10.637zm11.73 10.835c-1.1803 0-2.1066-0.35433-2.7788-1.063s-1.0083-1.6759-1.0083-2.9019c0-0.76107 0.1333-1.4492 0.3999-2.0645 0.2666-0.61524 0.66308-1.104 1.1895-1.4663 0.52637-0.36231 1.1769-0.54346 1.9517-0.54346 1.0208 0 1.8127 0.32698 2.3755 0.98096 0.56283 0.65397 0.84424 1.5597 0.84424 2.7173v0.61523h-5.4482v0.041016c0 0.79753 0.20963 1.4333 0.62891 1.9072s1.0391 0.71094 1.8594 0.71094c0.47396 0 0.9331-0.075195 1.3774-0.22559 0.44434-0.15039 0.87386-0.33268 1.2886-0.54688v1.251c-0.43294 0.17774-0.87158 0.32015-1.3159 0.42725s-0.89892 0.16064-1.3638 0.16064zm1.7158-4.71c0-0.42383-0.063802-0.80664-0.19141-1.1484-0.1276-0.3418-0.33154-0.61295-0.61182-0.81348-0.28028-0.20052-0.65055-0.30078-1.1108-0.30078-0.46485 0-0.85335 0.1014-1.1655 0.3042s-0.55599 0.4751-0.73144 0.81689c-0.17546 0.3418-0.28597 0.72233-0.33154 1.1416h4.1426zm11.683-5.6943h2.9805c1.1302 0 1.9938 0.25748 2.5908 0.77246 0.30534 0.26888 0.52864 0.59586 0.66992 0.98096 0.14128 0.38509 0.21191 0.81917 0.21191 1.3022 0 1.0026-0.29166 1.7614-0.875 2.2764-0.57878 0.51498-1.4447 0.77246-2.5977 0.77246h-1.5996v4.1016h-1.3809v-10.206zm2.9805 4.9697c0.3418 0 0.63574-0.045572 0.88184-0.13672s0.45117-0.21419 0.61523-0.36914c0.35547-0.33724 0.5332-0.80892 0.5332-1.415s-0.17773-1.0778-0.5332-1.415c-0.34636-0.33268-0.84537-0.49902-1.4971-0.49902h-1.5996v3.835h1.5996zm8.4971 5.4346c-1.0664 0-1.881-0.34521-2.4438-1.0356-0.56283-0.69043-0.84424-1.6828-0.84424-2.9771 0-1.2988 0.28255-2.2946 0.84766-2.9873s1.3763-1.0391 2.4336-1.0391 1.8673 0.34521 2.4302 1.0356c0.56283 0.69043 0.84424 1.6896 0.84424 2.9976 0 1.2988-0.28027 2.2912-0.84082 2.9771-0.56055 0.68588-1.3695 1.0288-2.4268 1.0288zm-0.006836-1.0664c0.62435 0 1.104-0.25521 1.439-0.76562s0.50244-1.2419 0.50244-2.1943c0-0.94792-0.16748-1.6759-0.50244-2.1841-0.33496-0.50814-0.81461-0.76221-1.439-0.76221-0.62891 0-1.1108 0.25407-1.4458 0.76221-0.33496 0.50814-0.50244 1.2362-0.50244 2.1841 0 0.95248 0.16862 1.6839 0.50586 2.1943 0.33724 0.51042 0.81803 0.76562 1.4424 0.76562zm8.2373 1.0664c-0.72917 0-1.5859-0.1595-2.5703-0.47852v-1.2988c0.95704 0.48308 1.8092 0.72461 2.5566 0.72461 0.53321 0 0.95931-0.11165 1.2783-0.33496s0.47852-0.52181 0.47852-0.89551c0-0.32357-0.1333-0.58447-0.3999-0.78271-0.2666-0.19824-0.69157-0.35889-1.2749-0.48193l-0.52637-0.10938c-0.72006-0.14583-1.2476-0.38623-1.5825-0.72119-0.33496-0.33496-0.50244-0.79183-0.50244-1.3706 0-0.73373 0.25065-1.2988 0.75195-1.6953 0.5013-0.39649 1.2145-0.59473 2.1396-0.59473 0.78386 0 1.5426 0.15039 2.2764 0.45117v1.2305c-0.7155-0.41927-1.4629-0.62891-2.2422-0.62891-1.1029 0-1.6543 0.37597-1.6543 1.1279 0 0.2461 0.047851 0.44092 0.14356 0.58447s0.27799 0.26432 0.54688 0.3623c0.26888 0.097982 0.66536 0.19938 1.1895 0.3042l0.50586 0.095703c1.2669 0.25065 1.9004 0.94108 1.9004 2.0713 0 0.75651-0.26888 1.3524-0.80664 1.7876-0.53776 0.43522-1.2738 0.65283-2.208 0.65283zm7.9775-9.2422c-0.13672 0-0.20508-0.068359-0.20508-0.20508v-1.1826c0-0.13672 0.068358-0.20508 0.20508-0.20508h0.98438c0.13672 0 0.20508 0.068359 0.20508 0.20508v1.1826c0 0.13672-0.068359 0.20508-0.20508 0.20508h-0.98438zm2.2969 9.0986c-0.75196 0-1.3341-0.24267-1.7466-0.72803s-0.61865-1.1678-0.61865-2.0474v-3.9512h-1.6748v-0.98438h2.9326v4.9355c0 0.55599 0.10482 0.97982 0.31445 1.2715 0.20964 0.29167 0.51497 0.4375 0.91602 0.4375h1.4697v1.0664h-1.5928zm8.0732-0.027344c-0.93881 0-1.603-0.19026-1.9927-0.5708-0.38965-0.38054-0.58447-1.0311-0.58447-1.9517v-4.1836h-2.0439v-0.97754h2.0439v-2.0029l1.2578-0.54688v2.5498h2.8574v0.97754h-2.8574v4.1836c0 0.56055 0.1071 0.95361 0.32129 1.1792 0.21419 0.22559 0.58789 0.33838 1.1211 0.33838h1.415v1.0049h-1.5381zm6.4873-9.0713c-0.13672 0-0.20508-0.068359-0.20508-0.20508v-1.1826c0-0.13672 0.068358-0.20508 0.20508-0.20508h0.98438c0.13672 0 0.20508 0.068359 0.20508 0.20508v1.1826c0 0.13672-0.068359 0.20508-0.20508 0.20508h-0.98438zm2.2969 9.0986c-0.75196 0-1.3341-0.24267-1.7466-0.72803s-0.61865-1.1678-0.61865-2.0474v-3.9512h-1.6748v-0.98438h2.9326v4.9355c0 0.55599 0.10482 0.97982 0.31445 1.2715 0.20964 0.29167 0.51497 0.4375 0.91602 0.4375h1.4697v1.0664h-1.5928zm3.2402-7.7109h1.3057l2.2217 6.4258 2.2285-6.4258h1.3057l-2.7207 7.6562h-1.6201l-2.7207-7.6562zm12.38 7.8545c-1.1803 0-2.1066-0.35433-2.7788-1.063s-1.0083-1.6759-1.0083-2.9019c0-0.76107 0.1333-1.4492 0.3999-2.0645 0.2666-0.61524 0.66308-1.104 1.1895-1.4663s1.1769-0.54346 1.9517-0.54346c1.0208 0 1.8127 0.32698 2.3755 0.98096 0.56283 0.65397 0.84424 1.5597 0.84424 2.7173v0.61523h-5.4482v0.041016c0 0.79753 0.20963 1.4333 0.62891 1.9072s1.0391 0.71094 1.8594 0.71094c0.47396 0 0.9331-0.075195 1.3774-0.22559 0.44434-0.15039 0.87386-0.33268 1.2886-0.54688v1.251c-0.43294 0.17774-0.87158 0.32015-1.3159 0.42725-0.44434 0.1071-0.89892 0.16064-1.3638 0.16064zm1.7158-4.71c0-0.42383-0.063801-0.80664-0.19141-1.1484s-0.33154-0.61295-0.61182-0.81348c-0.28028-0.20052-0.65055-0.30078-1.1108-0.30078-0.46485 0-0.85335 0.1014-1.1655 0.3042s-0.55599 0.4751-0.73144 0.81689c-0.17546 0.3418-0.28597 0.72233-0.33154 1.1416h4.1426zm14.034-4.5322h-3.2061v-1.1621h7.7861v1.1621h-3.1924v9.0439h-1.3877v-9.0439zm9.5361 9.2422c-1.1803 0-2.1066-0.35433-2.7788-1.063s-1.0083-1.6759-1.0083-2.9019c0-0.76107 0.1333-1.4492 0.3999-2.0645 0.2666-0.61524 0.66308-1.104 1.1895-1.4663s1.1769-0.54346 1.9517-0.54346c1.0208 0 1.8127 0.32698 2.3755 0.98096 0.56283 0.65397 0.84424 1.5597 0.84424 2.7173v0.61523h-5.4482v0.041016c0 0.79753 0.20963 1.4333 0.62891 1.9072 0.41927 0.47396 1.0391 0.71094 1.8594 0.71094 0.47396 0 0.9331-0.075195 1.3774-0.22559 0.44434-0.15039 0.87386-0.33268 1.2886-0.54688v1.251c-0.43294 0.17774-0.87158 0.32015-1.3159 0.42725s-0.89892 0.16064-1.3638 0.16064zm1.7158-4.71c0-0.42383-0.063801-0.80664-0.19141-1.1484s-0.33154-0.61295-0.61182-0.81348c-0.28027-0.20052-0.65055-0.30078-1.1108-0.30078-0.46485 0-0.85335 0.1014-1.1655 0.3042s-0.55599 0.4751-0.73144 0.81689c-0.17546 0.3418-0.28597 0.72233-0.33154 1.1416h4.1426zm6.8975 4.71c-0.80664 0-1.4845-0.16976-2.0337-0.50928-0.54916-0.33952-0.96387-0.81233-1.2441-1.4185-0.28028-0.60612-0.42041-1.3034-0.42041-2.0918 0-0.79297 0.14127-1.4914 0.42383-2.0952 0.28255-0.60384 0.69954-1.0755 1.251-1.415s1.235-0.50928 2.0508-0.50928c0.42383 0 0.80664 0.04899 1.1484 0.14697 0.3418 0.097982 0.69043 0.24495 1.0459 0.44092v1.3193c-0.32357-0.28711-0.64827-0.49902-0.97412-0.63574s-0.69612-0.20508-1.1108-0.20508c-0.61524 0-1.1063 0.13216-1.4731 0.39648-0.36686 0.26432-0.63118 0.61979-0.79297 1.0664-0.16178 0.44662-0.24268 0.94336-0.24268 1.4902 0 0.54232 0.08203 1.0379 0.24609 1.4868 0.16406 0.4489 0.42838 0.8055 0.79297 1.0698 0.36458 0.26432 0.85221 0.39648 1.4629 0.39648 0.40104 0 0.77474-0.06608 1.1211-0.19824 0.34636-0.13216 0.66992-0.3418 0.9707-0.62891v1.3057c-0.6517 0.39193-1.3922 0.58789-2.2217 0.58789zm4.9424-10.835h1.2578v4.1289c0.46029-0.88868 1.2145-1.333 2.2627-1.333 0.62891 0 1.1108 0.14583 1.4458 0.4375 0.33496 0.29167 0.56624 0.6722 0.69385 1.1416s0.19141 0.97526 0.19141 1.5176v4.7441h-1.2646v-4.7441c0-0.68815-0.12077-1.194-0.3623-1.5176s-0.61751-0.48535-1.1279-0.48535c-0.47396 0-0.84424 0.11735-1.1108 0.35205-0.2666 0.2347-0.45459 0.53662-0.56396 0.90576-0.10938 0.36914-0.16406 0.75651-0.16406 1.1621v4.3271h-1.2578v-10.637zm16.7 0.43066h2.9805c1.1302 0 1.9938 0.25748 2.5908 0.77246 0.30534 0.26888 0.52864 0.59586 0.66992 0.98096 0.14128 0.38509 0.21191 0.81917 0.21191 1.3022 0 1.0026-0.29166 1.7614-0.875 2.2764-0.57878 0.51498-1.4447 0.77246-2.5977 0.77246h-1.5996v4.1016h-1.3809v-10.206zm2.9805 4.9697c0.3418 0 0.63574-0.045572 0.88184-0.13672s0.45117-0.21419 0.61523-0.36914c0.35547-0.33724 0.5332-0.80892 0.5332-1.415s-0.17773-1.0778-0.5332-1.415c-0.34636-0.33268-0.84537-0.49902-1.4971-0.49902h-1.5996v3.835h1.5996zm8.4971 5.4346c-1.0664 0-1.881-0.34521-2.4438-1.0356-0.56283-0.69043-0.84424-1.6828-0.84424-2.9771 0-1.2988 0.28255-2.2946 0.84766-2.9873s1.3763-1.0391 2.4336-1.0391 1.8673 0.34521 2.4302 1.0356c0.56283 0.69043 0.84424 1.6896 0.84424 2.9976 0 1.2988-0.28027 2.2912-0.84082 2.9771-0.56055 0.68588-1.3695 1.0288-2.4268 1.0288zm-0.006836-1.0664c0.62435 0 1.104-0.25521 1.439-0.76562s0.50244-1.2419 0.50244-2.1943c0-0.94792-0.16748-1.6759-0.50244-2.1841-0.33496-0.50814-0.81461-0.76221-1.439-0.76221-0.62891 0-1.1108 0.25407-1.4458 0.76221-0.33496 0.50814-0.50244 1.2362-0.50244 2.1841 0 0.95248 0.16862 1.6839 0.50586 2.1943 0.33724 0.51042 0.81803 0.76562 1.4424 0.76562zm7.998 1.0664c-0.55599 0-1.0231-0.11849-1.4014-0.35547-0.37826-0.23698-0.68018-0.55371-0.90576-0.9502-0.22559-0.39649-0.38851-0.83512-0.48877-1.3159s-0.15039-0.965-0.15039-1.4526c0-1.2214 0.26774-2.1875 0.80322-2.8984 0.53548-0.71094 1.2589-1.0664 2.1704-1.0664 0.44662 0 0.84765 0.094563 1.2031 0.28369 0.35547 0.18913 0.63802 0.48193 0.84766 0.87842v-3.958h1.2578v10.637h-1.1348l-0.12305-0.96387c-0.45117 0.77474-1.1439 1.1621-2.0781 1.1621zm0.22559-1.0664c0.39649 0 0.71663-0.093424 0.96045-0.28027 0.24382-0.18685 0.43066-0.42952 0.56055-0.72803 0.12988-0.2985 0.21761-0.61979 0.26318-0.96387 0.045573-0.34408 0.068359-0.67334 0.068359-0.98779 0-0.3099-0.022786-0.63574-0.068359-0.97754s-0.1333-0.66195-0.26318-0.96045c-0.12988-0.2985-0.31673-0.54118-0.56055-0.72803-0.24382-0.18685-0.56396-0.28027-0.96045-0.28027-0.40104 0-0.72347 0.093424-0.96728 0.28027s-0.42838 0.42952-0.55371 0.72803-0.21078 0.61865-0.25635 0.96045-0.068359 0.66764-0.068359 0.97754c0 0.3099 0.022786 0.63688 0.068359 0.98096 0.045573 0.34408 0.13102 0.66536 0.25635 0.96387s0.3099 0.54232 0.55371 0.73145c0.24382 0.18913 0.56624 0.28369 0.96728 0.28369zm9.2354 1.0664c-0.80664 0-1.4845-0.16976-2.0337-0.50928-0.54916-0.33952-0.96387-0.81233-1.2441-1.4185-0.28028-0.60612-0.42041-1.3034-0.42041-2.0918 0-0.79297 0.14128-1.4914 0.42383-2.0952 0.28255-0.60384 0.69954-1.0755 1.251-1.415s1.235-0.50928 2.0508-0.50928c0.42383 0 0.80664 0.04899 1.1484 0.14697 0.3418 0.097982 0.69043 0.24495 1.0459 0.44092v1.3193c-0.32357-0.28711-0.64827-0.49902-0.97412-0.63574s-0.69612-0.20508-1.1108-0.20508c-0.61524 0-1.1063 0.13216-1.4731 0.39648-0.36686 0.26432-0.63118 0.61979-0.79297 1.0664s-0.24268 0.94336-0.24268 1.4902c0 0.54232 0.082031 1.0379 0.24609 1.4868s0.42838 0.8055 0.79297 1.0698c0.36458 0.26432 0.85221 0.39648 1.4629 0.39648 0.40104 0 0.77474-0.06608 1.1211-0.19824s0.66992-0.3418 0.9707-0.62891v1.3057c-0.6517 0.39193-1.3922 0.58789-2.2217 0.58789zm7.0889 0c-0.73828 0-1.3478-0.21305-1.8286-0.63916-0.4808-0.42611-0.72119-1.0379-0.72119-1.8354 0-0.66081 0.1595-1.1769 0.47852-1.5483s0.736-0.63232 1.251-0.78271c0.51498-0.15039 1.0641-0.22559 1.6475-0.22559h1.6885v-0.19824c0-0.6517-0.1652-1.1051-0.49561-1.3604-0.3304-0.25521-0.7941-0.38281-1.3911-0.38281-0.46485 0-0.92057 0.063801-1.3672 0.19141-0.44662 0.1276-0.8636 0.30534-1.251 0.5332v-1.2578c0.41927-0.15495 0.8431-0.28255 1.2715-0.38281 0.42839-0.10026 0.86588-0.15039 1.3125-0.15039 0.45573 0 0.89892 0.062662 1.3296 0.18799 0.43067 0.12533 0.80322 0.3304 1.1177 0.61523 0.31446 0.28483 0.52409 0.6665 0.62891 1.145 0.072917 0.33724 0.10938 0.84537 0.10938 1.5244v1.5654c0 0.42839 0.023926 0.90234 0.071778 1.4219 0.047851 0.51953 0.15836 0.97982 0.33154 1.3809h-1.2646c-0.077474-0.17774-0.139-0.368-0.18457-0.5708s-0.082031-0.3999-0.10938-0.59131c-0.26888 0.46029-0.64144 0.80208-1.1177 1.0254s-0.97868 0.33496-1.5073 0.33496zm0.30762-1.0527c0.51953 0 0.94222-0.1276 1.2681-0.38281s0.56396-0.58903 0.71436-1.0015c0.15039-0.41244 0.22559-0.85563 0.22559-1.3296v-0.28027h-1.5928c-0.35547 0-0.70296 0.039876-1.0425 0.11963s-0.61979 0.23128-0.84082 0.45459c-0.22103 0.22331-0.33154 0.54915-0.33154 0.97754 0 0.48308 0.14811 0.84424 0.44434 1.0835 0.29622 0.23926 0.68131 0.35889 1.1553 0.35889zm8.668 1.0527c-0.72917 0-1.5859-0.1595-2.5703-0.47852v-1.2988c0.95704 0.48308 1.8092 0.72461 2.5566 0.72461 0.53321 0 0.95931-0.11165 1.2783-0.33496s0.47852-0.52181 0.47852-0.89551c0-0.32357-0.1333-0.58447-0.3999-0.78271-0.2666-0.19824-0.69157-0.35889-1.2749-0.48193l-0.52637-0.10938c-0.72006-0.14583-1.2476-0.38623-1.5825-0.72119-0.33496-0.33496-0.50244-0.79183-0.50244-1.3706 0-0.73373 0.25065-1.2988 0.75195-1.6953s1.2145-0.59473 2.1396-0.59473c0.78386 0 1.5426 0.15039 2.2764 0.45117v1.2305c-0.7155-0.41927-1.4629-0.62891-2.2422-0.62891-1.1029 0-1.6543 0.37597-1.6543 1.1279 0 0.2461 0.047851 0.44092 0.14356 0.58447s0.27799 0.26432 0.54688 0.3623c0.26888 0.097982 0.66536 0.19938 1.1895 0.3042l0.50586 0.095703c1.2669 0.25065 1.9004 0.94108 1.9004 2.0713 0 0.75651-0.26888 1.3524-0.80664 1.7876-0.53776 0.43522-1.2738 0.65283-2.208 0.65283zm9.9189-0.1709c-0.93881 0-1.603-0.19026-1.9927-0.5708-0.38965-0.38054-0.58447-1.0311-0.58447-1.9517v-4.1836h-2.0439v-0.97754h2.0439v-2.0029l1.2578-0.54688v2.5498h2.8574v0.97754h-2.8574v4.1836c0 0.56055 0.1071 0.95361 0.32129 1.1792 0.21419 0.22559 0.58789 0.33838 1.1211 0.33838h1.415v1.0049h-1.5381z"/>
<g fill-rule="nonzero">
<polygon points="27.986 39.901 50.211 29.077 50.211 33.311 32.582 41.547 32.582 41.641 50.211 49.925 50.211 54.115 27.986 43.291"/>
<polygon points="52.68 56.538 64.246 21.808 68.32 21.808 56.756 56.538"/>
<polygon points="93.014 43.385 70.789 54.115 70.789 49.925 88.701 41.641 88.701 41.549 70.789 33.265 70.789 29.077 93.014 39.807"/>
<polygon points="114.95 84 6.051 84 0 79.154 121 79.154"/>
<path d="m114.41 76.731h-3.7958v-71.667c0-0.63303-0.52003-1.1687-1.1388-1.1687h-97.136c-0.61682 0-1.1388 0.53369-1.1388 1.1687v71.667h-3.7958v-71.667c0-2.7931 2.213-5.0642 4.9346-5.0642h97.138c2.7216 0 4.9346 2.2711 4.9346 5.0642v71.667h-0.001898z"/>
<path d="m49.218 75.923h-49.218v3.2308h52.68c-1.7638 0-3.1748-1.4172-3.4619-3.2308z"/>
<path d="m70.957 75.923c-0.28708 1.8135-1.6962 3.2308-3.46 3.2308h52.68v-3.2308h-49.22z"/>
</g>
</g>
</svg>
